<?xml version="1.0" encoding="utf-8"?>
<!-- Generator: Adobe Illustrator 18.1.1, SVG Export Plug-In . SVG Version: 6.00 Build 0)  -->
<svg version="1.1" id="Layer_1" xmlns="http://www.w3.org/2000/svg" xmlns:xlink="http://www.w3.org/1999/xlink" x="0px" y="0px"
	 viewBox="0 0 691 534" enable-background="new 0 0 691 534" xml:space="preserve">
<path fill="#B30838" stroke="#B30838" stroke-width="0.5" stroke-miterlimit="10" d="M142.3,469.4"/>
<path fill="none" stroke="#FFFFFF" stroke-width="0.5" stroke-miterlimit="10" d="M38.5,458.1"/>
<rect x="283.1" y="291.4" fill="#B30838" width="2.9" height="11.7"/>
<rect x="290.4" y="291.4" fill="#B30838" width="2.9" height="11.7"/>
<rect x="299" y="291.4" fill="#B30838" width="2.9" height="11.7"/>
<rect x="306.1" y="291.4" fill="#B30838" width="2.9" height="11.7"/>
<rect x="313.8" y="291.4" fill="#B30838" width="2.9" height="11.7"/>
<rect x="322.1" y="291.4" fill="#B30838" width="2.9" height="11.7"/>
<rect x="329.7" y="291.4" fill="#B30838" width="2.9" height="11.7"/>
<rect x="336.8" y="291.4" fill="#B30838" width="2.9" height="11.7"/>
<rect x="344.7" y="291.4" fill="#B30838" width="2.9" height="11.7"/>
<rect x="352.3" y="291.4" fill="#B30838" width="2.9" height="11.7"/>
<rect x="360.9" y="291.4" fill="#B30838" width="2.8" height="11.7"/>
<rect x="368" y="291.4" fill="#B30838" width="2.9" height="11.7"/>
<rect x="375.6" y="291.4" fill="#B30838" width="2.9" height="11.7"/>
<rect x="382.5" y="291.4" fill="#B30838" width="2.9" height="11.7"/>
<polygon fill="#B30838" points="180.6,367.3 184.7,380.6 205.9,380.6 209.9,367.3 "/>
<rect x="137.9" y="382" fill="#B30838" width="20.8" height="64.6"/>
<polygon fill="#B30838" points="87.7,367.3 91.8,380.6 113,380.6 117,367.3 "/>
<rect x="184.9" y="382" fill="#B30838" width="20.8" height="64.6"/>
<rect x="91.9" y="382" fill="#B30838" width="20.8" height="64.6"/>
<polygon fill="#B30838" points="133.7,367.3 137.8,380.6 159,380.6 163,367.3 "/>
<path fill="#B30838" d="M432,448.3h45.5V379H432V448.3z M451.9,387.9h9.1v32.4h-9.1V387.9z"/>
<polygon fill="#B30838" points="431.9,378 477.6,378 481.6,364.2 427.6,364.2 "/>
<path fill="#B30838" d="M524.9,364.2c0,0.4-0.1,0.9-0.1,1.3c-0.3,4.2-0.6,8.3-0.9,12.5h40.7l3.6-13.8H524.9z"/>
<path fill="#B30838" d="M524.5,379c-0.1,1.2-0.2,2.3-0.2,3.5l-1.8,16.7l1.8,49h39.8V379H524.5z M549.6,420.2h-8v-32.4h8V420.2z"/>
<polygon fill="#B30838" points="231.4,380.6 252.6,380.6 256.6,367.3 227.3,367.3 "/>
<rect x="231.5" y="382" fill="#B30838" width="20.8" height="64.6"/>
<g>
	<path fill="#B30838" d="M74.1,463.9c-0.4-0.7-1-1.2-1.7-1.5c-0.7-0.3-1.5-0.5-2.3-0.5c-0.6,0-1.2,0.1-1.7,0.2
		c-0.6,0.1-1.1,0.4-1.5,0.7c-0.4,0.3-0.8,0.7-1.1,1.2c-0.3,0.5-0.4,1-0.4,1.7c0,0.5,0.1,0.9,0.2,1.3c0.2,0.4,0.4,0.7,0.8,1
		c0.4,0.3,0.8,0.6,1.4,0.9c0.6,0.3,1.3,0.5,2.2,0.8c0.9,0.3,1.7,0.6,2.5,0.9c0.8,0.3,1.5,0.7,2.1,1.2c0.6,0.5,1.1,1.1,1.5,1.8
		c0.4,0.7,0.5,1.6,0.5,2.7c0,1.1-0.2,2.1-0.7,2.9c-0.4,0.8-1,1.5-1.7,2c-0.7,0.5-1.5,0.9-2.5,1.2c-0.9,0.3-1.9,0.4-2.9,0.4
		c-0.6,0-1.3-0.1-1.9-0.2c-0.6-0.1-1.3-0.3-1.9-0.5c-0.6-0.2-1.2-0.6-1.7-0.9c-0.5-0.4-1-0.9-1.3-1.4l2.2-1.8c0.5,0.8,1.1,1.4,2,1.8
		c0.9,0.4,1.8,0.6,2.7,0.6c0.6,0,1.1-0.1,1.7-0.2c0.6-0.2,1.1-0.4,1.5-0.7c0.5-0.3,0.8-0.7,1.1-1.2c0.3-0.5,0.4-1,0.4-1.7
		c0-0.7-0.1-1.2-0.3-1.7c-0.2-0.4-0.6-0.8-1.1-1.1c-0.5-0.3-1.1-0.6-1.8-0.8c-0.7-0.2-1.6-0.5-2.6-0.9c-0.8-0.2-1.5-0.5-2.2-0.9
		c-0.7-0.3-1.2-0.7-1.7-1.2c-0.5-0.5-0.9-1-1.2-1.7c-0.3-0.7-0.4-1.4-0.4-2.4c0-1.1,0.2-2,0.6-2.8c0.4-0.8,1-1.5,1.7-2
		c0.7-0.5,1.5-0.9,2.4-1.2c0.9-0.3,1.8-0.4,2.8-0.4c1.2,0,2.4,0.2,3.4,0.6c1,0.4,2,1.1,2.8,2L74.1,463.9z"/>
	<path fill="#B30838" d="M96.2,482.1h-2.4l-4.2-11.2h-0.1l-3.7,11.2h-2.5l-4.7-14.6h2.7l3.3,11.2h0.1l3.8-11.2h2.6l3.8,11.2H95
		l3.3-11.2h2.6L96.2,482.1z"/>
	<path fill="#B30838" d="M103.5,469.3c0.7-0.8,1.6-1.3,2.7-1.7c1-0.4,2.1-0.5,3.1-0.5c2.2,0,3.7,0.5,4.7,1.5c1,1,1.4,2.6,1.4,4.7
		v6.3c0,0.4,0,0.8,0.1,1.3c0,0.4,0.1,0.9,0.2,1.2h-2.3c-0.1-0.3-0.1-0.7-0.1-1.1c0-0.4,0-0.8,0-1.1h-0.1c-0.5,0.7-1.1,1.4-1.9,1.8
		c-0.8,0.5-1.8,0.7-2.9,0.7c-0.7,0-1.5-0.1-2.1-0.3c-0.7-0.2-1.2-0.5-1.7-0.8c-0.5-0.4-0.9-0.8-1.2-1.4c-0.3-0.5-0.4-1.2-0.4-1.9
		c0-1.2,0.3-2.2,0.9-2.8c0.6-0.7,1.4-1.2,2.3-1.5c0.9-0.3,1.9-0.5,3-0.6c1.1-0.1,2.1-0.1,3-0.1h0.9v-0.4c0-1.1-0.3-1.9-1-2.4
		c-0.6-0.5-1.5-0.8-2.7-0.8c-0.8,0-1.6,0.1-2.3,0.4c-0.8,0.3-1.4,0.7-2,1.2L103.5,469.3z M110.6,475.1c-1.6,0-2.8,0.2-3.7,0.7
		c-0.9,0.4-1.4,1.2-1.4,2.2c0,0.9,0.3,1.6,0.9,2c0.6,0.4,1.4,0.6,2.3,0.6c0.7,0,1.3-0.1,1.9-0.4c0.5-0.2,1-0.6,1.3-1
		c0.4-0.4,0.6-0.9,0.8-1.4c0.2-0.5,0.3-1.1,0.3-1.7v-0.9H110.6z"/>
	<path fill="#B30838" d="M119.9,470.9c0-0.7,0-1.3-0.1-1.9c0-0.6-0.1-1.1-0.1-1.6h2.3c0,0.4,0,0.8,0,1.2c0,0.4,0,0.8,0,1.2h0.1
		c0.2-0.4,0.4-0.7,0.7-1c0.3-0.3,0.7-0.6,1.1-0.9c0.4-0.3,0.9-0.5,1.4-0.6c0.5-0.2,1.1-0.2,1.7-0.2c0.2,0,0.3,0,0.5,0
		c0.2,0,0.3,0.1,0.5,0.1l-0.2,2.5c-0.4-0.1-0.9-0.2-1.3-0.2c-1.5,0-2.6,0.5-3.3,1.5c-0.7,1-1,2.3-1,4v7.1h-2.4V470.9z"/>
	<path fill="#B30838" d="M138.9,469.5h-4.3v7.3c0,0.5,0,0.9,0,1.3c0,0.4,0.1,0.8,0.2,1.1c0.1,0.3,0.4,0.5,0.7,0.7
		c0.3,0.2,0.7,0.3,1.2,0.3c0.4,0,0.7,0,1.1-0.1c0.4-0.1,0.7-0.2,1.1-0.4l0.1,2.2c-0.4,0.2-0.9,0.3-1.4,0.4c-0.5,0.1-1,0.1-1.5,0.1
		c-0.9,0-1.6-0.1-2.1-0.3c-0.5-0.2-0.9-0.6-1.2-1c-0.3-0.4-0.5-0.9-0.6-1.5c-0.1-0.6-0.1-1.3-0.1-2v-8H129v-2.1h3.2v-4.2h2.4v4.2
		h4.3V469.5z"/>
	<path fill="#B30838" d="M141.9,458.5h2.4v11h0.1c0.2-0.3,0.4-0.6,0.7-0.9c0.3-0.3,0.6-0.5,1-0.8c0.4-0.2,0.9-0.4,1.4-0.6
		c0.5-0.1,1-0.2,1.6-0.2c1,0,1.8,0.1,2.5,0.4c0.7,0.3,1.3,0.7,1.7,1.2c0.5,0.5,0.8,1.2,1,1.9c0.2,0.7,0.3,1.5,0.3,2.4v9h-2.4v-8.8
		c0-1.2-0.3-2.2-0.8-2.9c-0.5-0.7-1.4-1.1-2.5-1.1c-0.8,0-1.5,0.1-2,0.4c-0.6,0.3-1,0.7-1.4,1.2c-0.4,0.5-0.6,1.1-0.8,1.8
		c-0.2,0.7-0.3,1.4-0.3,2.3v7.1h-2.4V458.5z"/>
	<path fill="#B30838" d="M159.3,470.9c0-0.7,0-1.3-0.1-1.9c0-0.6-0.1-1.1-0.1-1.6h2.3c0,0.4,0,0.8,0,1.2c0,0.4,0,0.8,0,1.2h0.1
		c0.2-0.4,0.4-0.7,0.7-1c0.3-0.3,0.7-0.6,1.1-0.9c0.4-0.3,0.9-0.5,1.4-0.6c0.5-0.2,1.1-0.2,1.7-0.2c0.8,0,1.5,0.1,2,0.3
		c0.5,0.2,1,0.4,1.3,0.7c0.4,0.3,0.6,0.6,0.8,0.9c0.2,0.3,0.4,0.6,0.5,0.9c0.5-0.9,1.2-1.6,1.9-2c0.7-0.5,1.6-0.7,2.7-0.7
		c1,0,1.9,0.1,2.6,0.4c0.7,0.3,1.3,0.7,1.7,1.2c0.4,0.5,0.7,1.2,0.9,1.9c0.2,0.8,0.3,1.6,0.3,2.5v8.9h-2.4v-8.7c0-0.5-0.1-1-0.2-1.5
		c-0.1-0.5-0.3-0.9-0.6-1.3c-0.3-0.4-0.6-0.7-1.1-0.9c-0.5-0.2-1-0.3-1.7-0.3c-0.5,0-1,0.1-1.5,0.3c-0.5,0.2-0.9,0.5-1.2,0.9
		c-0.3,0.4-0.6,0.8-0.8,1.4c-0.2,0.5-0.3,1.1-0.3,1.8v8.4h-2.4v-8.3c0-1.6-0.2-2.8-0.7-3.5c-0.4-0.7-1.2-1-2.2-1
		c-0.8,0-1.5,0.1-2,0.4c-0.6,0.3-1,0.7-1.4,1.2c-0.4,0.5-0.6,1.1-0.8,1.8c-0.2,0.7-0.3,1.4-0.3,2.3v7.1h-2.4V470.9z"/>
	<path fill="#B30838" d="M185,474.8c0-1.1,0.2-2.2,0.6-3.1c0.4-0.9,0.9-1.7,1.6-2.4c0.7-0.7,1.5-1.2,2.5-1.6c1-0.4,2-0.6,3.1-0.6
		c1.1,0,2.2,0.2,3.1,0.6c1,0.4,1.8,0.9,2.5,1.6c0.7,0.7,1.2,1.5,1.6,2.4c0.4,0.9,0.6,2,0.6,3.1c0,1.1-0.2,2.2-0.6,3.1
		c-0.4,0.9-0.9,1.7-1.6,2.4c-0.7,0.7-1.5,1.2-2.5,1.6c-1,0.4-2,0.6-3.1,0.6c-1.1,0-2.2-0.2-3.1-0.6s-1.8-0.9-2.5-1.6
		c-0.7-0.7-1.2-1.5-1.6-2.4C185.2,477,185,475.9,185,474.8z M187.7,474.8c0,0.8,0.1,1.5,0.4,2.1c0.2,0.7,0.6,1.2,1,1.7
		c0.5,0.5,1,0.9,1.6,1.2c0.6,0.3,1.3,0.4,2.1,0.4c0.8,0,1.5-0.1,2.1-0.4c0.6-0.3,1.2-0.7,1.6-1.2c0.5-0.5,0.8-1.1,1-1.7
		c0.2-0.7,0.4-1.4,0.4-2.1c0-0.8-0.1-1.5-0.4-2.1c-0.2-0.7-0.6-1.2-1-1.7c-0.5-0.5-1-0.9-1.6-1.2c-0.6-0.3-1.3-0.4-2.1-0.4
		c-0.8,0-1.5,0.1-2.1,0.4c-0.6,0.3-1.2,0.7-1.6,1.2c-0.5,0.5-0.8,1.1-1,1.7C187.8,473.3,187.7,474,187.7,474.8z"/>
	<path fill="#B30838" d="M204.4,470.9c0-0.7,0-1.3-0.1-1.9c0-0.6-0.1-1.1-0.1-1.6h2.3c0,0.4,0,0.8,0,1.2c0,0.4,0,0.8,0,1.2h0.1
		c0.2-0.4,0.4-0.7,0.7-1c0.3-0.3,0.7-0.6,1.1-0.9c0.4-0.3,0.9-0.5,1.4-0.6c0.5-0.2,1.1-0.2,1.7-0.2c0.2,0,0.3,0,0.5,0
		c0.2,0,0.3,0.1,0.5,0.1l-0.2,2.5c-0.4-0.1-0.9-0.2-1.3-0.2c-1.5,0-2.6,0.5-3.3,1.5c-0.7,1-1,2.3-1,4v7.1h-2.4V470.9z"/>
	<path fill="#B30838" d="M227.9,479.4c-0.9,1.1-1.8,1.9-2.9,2.4c-1,0.4-2.2,0.7-3.6,0.7c-1.1,0-2.2-0.2-3.1-0.6
		c-0.9-0.4-1.7-1-2.3-1.6c-0.6-0.7-1.1-1.5-1.5-2.4c-0.3-0.9-0.5-1.9-0.5-3c0-1.1,0.2-2.2,0.6-3.1c0.4-0.9,0.9-1.8,1.6-2.4
		c0.7-0.7,1.5-1.2,2.4-1.6c0.9-0.4,1.9-0.6,3-0.6c1,0,2,0.2,2.8,0.5c0.9,0.3,1.6,0.8,2.2,1.5c0.6,0.7,1.1,1.5,1.4,2.4
		c0.3,0.9,0.5,2,0.5,3.2v0.8h-11.8c0,0.6,0.2,1.2,0.5,1.8c0.3,0.6,0.6,1.1,1,1.5c0.4,0.4,0.9,0.8,1.5,1s1.2,0.4,1.8,0.4
		c1.1,0,2-0.2,2.7-0.6c0.7-0.4,1.4-0.9,2-1.7L227.9,479.4z M225.8,473.5c0-1.2-0.4-2.2-1.2-3c-0.8-0.7-1.8-1.1-3.2-1.1
		c-1.4,0-2.4,0.4-3.3,1.1c-0.8,0.8-1.3,1.7-1.5,3H225.8z"/>
	<path fill="#B30838" d="M256.8,464.5c-0.7-0.9-1.5-1.6-2.5-2c-1-0.4-2-0.7-3.1-0.7c-1.2,0-2.4,0.2-3.4,0.7c-1,0.5-1.9,1.2-2.7,2
		c-0.7,0.8-1.3,1.8-1.7,2.9c-0.4,1.1-0.6,2.3-0.6,3.5c0,1.3,0.2,2.5,0.6,3.6c0.4,1.1,1,2.1,1.7,2.9c0.7,0.8,1.6,1.5,2.7,2
		c1,0.5,2.2,0.7,3.4,0.7c1.4,0,2.6-0.3,3.6-0.8c1.1-0.5,2-1.3,2.8-2.3l2,1.7c-1,1.3-2.2,2.3-3.6,2.9c-1.4,0.6-3,0.9-4.8,0.9
		c-1.6,0-3.1-0.3-4.4-0.9c-1.4-0.6-2.6-1.4-3.6-2.4c-1-1-1.8-2.3-2.4-3.7c-0.6-1.4-0.9-3-0.9-4.7c0-1.6,0.3-3.1,0.8-4.6
		c0.6-1.4,1.3-2.6,2.3-3.7c1-1,2.2-1.9,3.6-2.5c1.4-0.6,2.9-0.9,4.5-0.9c1.5,0,2.9,0.3,4.3,0.8c1.4,0.5,2.5,1.4,3.5,2.7L256.8,464.5
		z"/>
	<path fill="#B30838" d="M262,474.8c0-1.1,0.2-2.2,0.6-3.1s0.9-1.7,1.6-2.4c0.7-0.7,1.5-1.2,2.5-1.6c1-0.4,2-0.6,3.1-0.6
		c1.1,0,2.2,0.2,3.1,0.6c1,0.4,1.8,0.9,2.5,1.6c0.7,0.7,1.2,1.5,1.6,2.4c0.4,0.9,0.6,2,0.6,3.1c0,1.1-0.2,2.2-0.6,3.1
		c-0.4,0.9-0.9,1.7-1.6,2.4c-0.7,0.7-1.5,1.2-2.5,1.6s-2,0.6-3.1,0.6c-1.1,0-2.2-0.2-3.1-0.6s-1.8-0.9-2.5-1.6
		c-0.7-0.7-1.2-1.5-1.6-2.4C262.2,477,262,475.9,262,474.8z M264.7,474.8c0,0.8,0.1,1.5,0.4,2.1c0.2,0.7,0.6,1.2,1,1.7
		c0.5,0.5,1,0.9,1.6,1.2c0.6,0.3,1.3,0.4,2.1,0.4c0.8,0,1.5-0.1,2.1-0.4c0.6-0.3,1.2-0.7,1.6-1.2c0.5-0.5,0.8-1.1,1-1.7
		c0.2-0.7,0.4-1.4,0.4-2.1c0-0.8-0.1-1.5-0.4-2.1c-0.2-0.7-0.6-1.2-1-1.7c-0.5-0.5-1-0.9-1.6-1.2c-0.6-0.3-1.3-0.4-2.1-0.4
		c-0.8,0-1.5,0.1-2.1,0.4c-0.6,0.3-1.2,0.7-1.6,1.2c-0.5,0.5-0.8,1.1-1,1.7C264.8,473.3,264.7,474,264.7,474.8z"/>
	<path fill="#B30838" d="M281.6,458.5h2.4v23.6h-2.4V458.5z"/>
	<path fill="#B30838" d="M289.2,458.5h2.4v23.6h-2.4V458.5z"/>
	<path fill="#B30838" d="M309.5,479.4c-0.9,1.1-1.8,1.9-2.9,2.4c-1,0.4-2.2,0.7-3.6,0.7c-1.1,0-2.2-0.2-3.1-0.6
		c-0.9-0.4-1.7-1-2.3-1.6c-0.6-0.7-1.1-1.5-1.5-2.4c-0.3-0.9-0.5-1.9-0.5-3c0-1.1,0.2-2.2,0.6-3.1c0.4-0.9,0.9-1.8,1.6-2.4
		c0.7-0.7,1.5-1.2,2.4-1.6c0.9-0.4,1.9-0.6,3-0.6c1,0,2,0.2,2.8,0.5c0.9,0.3,1.6,0.8,2.2,1.5c0.6,0.7,1.1,1.5,1.4,2.4
		c0.3,0.9,0.5,2,0.5,3.2v0.8h-11.8c0,0.6,0.2,1.2,0.5,1.8c0.3,0.6,0.6,1.1,1,1.5c0.4,0.4,0.9,0.8,1.5,1c0.6,0.2,1.2,0.4,1.8,0.4
		c1.1,0,2-0.2,2.7-0.6c0.7-0.4,1.4-0.9,2-1.7L309.5,479.4z M307.4,473.5c0-1.2-0.4-2.2-1.2-3c-0.8-0.7-1.8-1.1-3.2-1.1
		s-2.4,0.4-3.3,1.1c-0.8,0.8-1.3,1.7-1.5,3H307.4z"/>
	<path fill="#B30838" d="M328.4,481.4c0,2.7-0.7,4.7-2,6.1c-1.4,1.4-3.3,2.1-5.9,2.1c-1.4,0-2.7-0.2-3.9-0.6
		c-1.2-0.4-2.3-1.1-3.3-2.2l1.7-2c0.8,0.8,1.6,1.5,2.5,1.9c0.9,0.4,1.9,0.6,3,0.6c1.1,0,2-0.2,2.7-0.5c0.7-0.3,1.3-0.8,1.7-1.3
		c0.4-0.6,0.7-1.2,0.9-1.9c0.2-0.7,0.2-1.4,0.2-2.2v-1.9h-0.1c-0.6,0.9-1.3,1.6-2.3,2.1c-0.9,0.4-1.9,0.7-2.9,0.7
		c-1.1,0-2.2-0.2-3.2-0.6c-1-0.4-1.8-0.9-2.5-1.6c-0.7-0.7-1.2-1.5-1.6-2.4c-0.4-0.9-0.6-1.9-0.6-3c0-1.2,0.2-2.3,0.6-3.2
		c0.4-1,0.9-1.8,1.6-2.4c0.7-0.7,1.5-1.2,2.5-1.5c1-0.4,2-0.5,3.2-0.5c0.5,0,1,0.1,1.5,0.2c0.5,0.1,1,0.3,1.5,0.5
		c0.5,0.2,0.9,0.5,1.3,0.9c0.4,0.4,0.7,0.8,0.9,1.3h0.1v-2.5h2.4V481.4z M315.6,474.8c0,0.8,0.1,1.4,0.4,2.1
		c0.3,0.6,0.6,1.2,1.1,1.7c0.5,0.5,1,0.8,1.6,1.1c0.6,0.3,1.3,0.4,2,0.4c0.8,0,1.6-0.1,2.2-0.4c0.6-0.3,1.2-0.7,1.6-1.2
		c0.4-0.5,0.8-1.1,1-1.7c0.2-0.6,0.3-1.3,0.3-2c0-0.8-0.1-1.5-0.4-2.2c-0.2-0.7-0.6-1.2-1.1-1.7c-0.5-0.5-1-0.8-1.7-1.1
		c-0.6-0.3-1.4-0.4-2.1-0.4c-0.8,0-1.5,0.1-2.1,0.4c-0.6,0.3-1.2,0.7-1.6,1.2c-0.4,0.5-0.8,1.1-1,1.7
		C315.7,473.3,315.6,474,315.6,474.8z"/>
	<path fill="#B30838" d="M345.9,479.4c-0.9,1.1-1.8,1.9-2.9,2.4c-1,0.4-2.2,0.7-3.6,0.7c-1.1,0-2.2-0.2-3.1-0.6
		c-0.9-0.4-1.7-1-2.3-1.6c-0.6-0.7-1.1-1.5-1.5-2.4c-0.3-0.9-0.5-1.9-0.5-3c0-1.1,0.2-2.2,0.6-3.1c0.4-0.9,0.9-1.8,1.6-2.4
		c0.7-0.7,1.5-1.2,2.4-1.6c0.9-0.4,1.9-0.6,3-0.6c1,0,2,0.2,2.8,0.5c0.9,0.3,1.6,0.8,2.2,1.5c0.6,0.7,1.1,1.5,1.4,2.4
		c0.3,0.9,0.5,2,0.5,3.2v0.8h-11.8c0,0.6,0.2,1.2,0.5,1.8c0.3,0.6,0.6,1.1,1,1.5c0.4,0.4,0.9,0.8,1.5,1c0.6,0.2,1.2,0.4,1.8,0.4
		c1.1,0,2-0.2,2.7-0.6c0.7-0.4,1.4-0.9,2-1.7L345.9,479.4z M343.8,473.5c0-1.2-0.4-2.2-1.2-3c-0.8-0.7-1.8-1.1-3.2-1.1
		c-1.4,0-2.4,0.4-3.3,1.1c-0.8,0.8-1.3,1.7-1.5,3H343.8z"/>
	<path fill="#B30838" d="M359.4,460h2.6v19.7h10.1v2.4h-12.7V460z"/>
	<path fill="#B30838" d="M374.2,461.8c0-0.5,0.2-0.9,0.5-1.2c0.3-0.4,0.8-0.5,1.3-0.5c0.5,0,0.9,0.2,1.3,0.5
		c0.3,0.4,0.5,0.8,0.5,1.2c0,0.5-0.2,0.9-0.5,1.3c-0.3,0.3-0.8,0.5-1.3,0.5c-0.5,0-0.9-0.2-1.3-0.5
		C374.4,462.7,374.2,462.3,374.2,461.8z M374.7,467.5h2.4v14.6h-2.4V467.5z"/>
	<path fill="#B30838" d="M381.9,458.5h2.4v11.1h0.1c0.7-0.8,1.4-1.4,2.3-1.8c0.9-0.4,1.9-0.7,2.9-0.7c1.1,0,2.2,0.2,3.1,0.6
		c0.9,0.4,1.8,0.9,2.4,1.6c0.7,0.7,1.2,1.5,1.6,2.4s0.6,2,0.6,3.1c0,1.1-0.2,2.1-0.6,3.1c-0.4,0.9-0.9,1.7-1.5,2.4
		c-0.7,0.7-1.4,1.2-2.3,1.6c-0.9,0.4-1.9,0.6-2.9,0.6c-1.3,0-2.5-0.3-3.5-0.9c-1-0.6-1.7-1.3-2.2-2.1h-0.1v2.6h-2.4V458.5z
		 M384.3,474.8c0,0.8,0.1,1.5,0.4,2.1c0.2,0.7,0.6,1.2,1,1.7c0.5,0.5,1,0.9,1.6,1.2c0.6,0.3,1.3,0.4,2.1,0.4c0.8,0,1.5-0.1,2.1-0.4
		c0.6-0.3,1.2-0.7,1.6-1.2c0.5-0.5,0.8-1.1,1-1.7c0.2-0.7,0.4-1.4,0.4-2.1c0-0.8-0.1-1.5-0.4-2.1c-0.2-0.7-0.6-1.2-1-1.7
		c-0.5-0.5-1-0.9-1.6-1.2c-0.6-0.3-1.3-0.4-2.1-0.4c-0.8,0-1.5,0.1-2.1,0.4c-0.6,0.3-1.2,0.7-1.6,1.2c-0.5,0.5-0.8,1.1-1,1.7
		C384.5,473.3,384.3,474,384.3,474.8z"/>
	<path fill="#B30838" d="M401.1,470.9c0-0.7,0-1.3-0.1-1.9c0-0.6-0.1-1.1-0.1-1.6h2.3c0,0.4,0,0.8,0,1.2c0,0.4,0,0.8,0,1.2h0.1
		c0.2-0.4,0.4-0.7,0.7-1c0.3-0.3,0.7-0.6,1.1-0.9c0.4-0.3,0.9-0.5,1.4-0.6c0.5-0.2,1.1-0.2,1.7-0.2c0.2,0,0.3,0,0.5,0
		c0.2,0,0.3,0.1,0.5,0.1l-0.2,2.5c-0.4-0.1-0.9-0.2-1.3-0.2c-1.5,0-2.6,0.5-3.3,1.5c-0.7,1-1,2.3-1,4v7.1h-2.4V470.9z"/>
	<path fill="#B30838" d="M411.9,469.3c0.7-0.8,1.6-1.3,2.7-1.7c1-0.4,2.1-0.5,3.1-0.5c2.2,0,3.7,0.5,4.7,1.5c1,1,1.4,2.6,1.4,4.7
		v6.3c0,0.4,0,0.8,0.1,1.3c0,0.4,0.1,0.9,0.2,1.2h-2.3c-0.1-0.3-0.1-0.7-0.1-1.1c0-0.4,0-0.8,0-1.1h-0.1c-0.5,0.7-1.1,1.4-1.9,1.8
		c-0.8,0.5-1.8,0.7-2.9,0.7c-0.7,0-1.5-0.1-2.1-0.3c-0.7-0.2-1.2-0.5-1.7-0.8c-0.5-0.4-0.9-0.8-1.2-1.4c-0.3-0.5-0.4-1.2-0.4-1.9
		c0-1.2,0.3-2.2,0.9-2.8c0.6-0.7,1.4-1.2,2.3-1.5c0.9-0.3,1.9-0.5,3-0.6c1.1-0.1,2.1-0.1,3-0.1h0.9v-0.4c0-1.1-0.3-1.9-1-2.4
		c-0.6-0.5-1.5-0.8-2.7-0.8c-0.8,0-1.6,0.1-2.3,0.4c-0.8,0.3-1.4,0.7-2,1.2L411.9,469.3z M419,475.1c-1.6,0-2.8,0.2-3.7,0.7
		c-0.9,0.4-1.4,1.2-1.4,2.2c0,0.9,0.3,1.6,0.9,2c0.6,0.4,1.4,0.6,2.3,0.6c0.7,0,1.3-0.1,1.9-0.4c0.5-0.2,1-0.6,1.3-1
		c0.4-0.4,0.6-0.9,0.8-1.4c0.2-0.5,0.3-1.1,0.3-1.7v-0.9H419z"/>
	<path fill="#B30838" d="M428.3,470.9c0-0.7,0-1.3-0.1-1.9c0-0.6-0.1-1.1-0.1-1.6h2.3c0,0.4,0,0.8,0,1.2c0,0.4,0,0.8,0,1.2h0.1
		c0.2-0.4,0.4-0.7,0.7-1c0.3-0.3,0.7-0.6,1.1-0.9c0.4-0.3,0.9-0.5,1.4-0.6c0.5-0.2,1.1-0.2,1.7-0.2c0.2,0,0.3,0,0.5,0
		c0.2,0,0.3,0.1,0.5,0.1l-0.2,2.5c-0.4-0.1-0.9-0.2-1.3-0.2c-1.5,0-2.6,0.5-3.3,1.5c-0.7,1-1,2.3-1,4v7.1h-2.4V470.9z"/>
	<path fill="#B30838" d="M438.9,461.8c0-0.5,0.2-0.9,0.5-1.2c0.3-0.4,0.8-0.5,1.3-0.5c0.5,0,0.9,0.2,1.3,0.5
		c0.3,0.4,0.5,0.8,0.5,1.2c0,0.5-0.2,0.9-0.5,1.3c-0.3,0.3-0.8,0.5-1.3,0.5c-0.5,0-0.9-0.2-1.3-0.5
		C439.1,462.7,438.9,462.3,438.9,461.8z M439.5,467.5h2.4v14.6h-2.4V467.5z"/>
	<path fill="#B30838" d="M459.8,479.4c-0.9,1.1-1.8,1.9-2.9,2.4c-1,0.4-2.2,0.7-3.6,0.7c-1.1,0-2.2-0.2-3.1-0.6
		c-0.9-0.4-1.7-1-2.3-1.6c-0.6-0.7-1.1-1.5-1.5-2.4c-0.3-0.9-0.5-1.9-0.5-3c0-1.1,0.2-2.2,0.6-3.1c0.4-0.9,0.9-1.8,1.6-2.4
		c0.7-0.7,1.5-1.2,2.4-1.6c0.9-0.4,1.9-0.6,3-0.6c1,0,2,0.2,2.8,0.5c0.9,0.3,1.6,0.8,2.2,1.5c0.6,0.7,1.1,1.5,1.4,2.4
		c0.3,0.9,0.5,2,0.5,3.2v0.8h-11.8c0,0.6,0.2,1.2,0.5,1.8c0.3,0.6,0.6,1.1,1,1.5c0.4,0.4,0.9,0.8,1.5,1c0.6,0.2,1.2,0.4,1.8,0.4
		c1.1,0,2-0.2,2.7-0.6c0.7-0.4,1.4-0.9,2-1.7L459.8,479.4z M457.7,473.5c0-1.2-0.4-2.2-1.2-3c-0.8-0.7-1.8-1.1-3.2-1.1
		c-1.4,0-2.4,0.4-3.3,1.1c-0.8,0.8-1.3,1.7-1.5,3H457.7z"/>
	<path fill="#B30838" d="M464.5,478.2c0.5,0.6,1,1.1,1.6,1.4c0.6,0.4,1.3,0.5,2.2,0.5c0.4,0,0.8,0,1.1-0.1c0.4-0.1,0.7-0.2,1-0.4
		c0.3-0.2,0.6-0.4,0.8-0.7c0.2-0.3,0.3-0.6,0.3-1c0-0.4-0.1-0.7-0.3-1c-0.2-0.2-0.4-0.5-0.7-0.6c-0.3-0.2-0.6-0.3-1-0.4
		c-0.4-0.1-0.8-0.2-1.2-0.3c-0.7-0.1-1.3-0.3-2-0.5c-0.6-0.2-1.2-0.4-1.6-0.7c-0.5-0.3-0.8-0.7-1.1-1.2c-0.3-0.5-0.4-1.1-0.4-1.8
		c0-0.7,0.2-1.3,0.5-1.9c0.3-0.5,0.7-1,1.2-1.3c0.5-0.4,1.1-0.6,1.7-0.8c0.6-0.2,1.3-0.3,2-0.3c1,0,2,0.2,2.9,0.6
		c0.9,0.4,1.6,1.1,2.1,2l-2,1.3c-0.3-0.5-0.7-0.9-1.2-1.3c-0.5-0.3-1.1-0.5-1.9-0.5c-0.3,0-0.7,0-1,0.1c-0.3,0.1-0.7,0.2-0.9,0.4
		c-0.3,0.2-0.5,0.4-0.7,0.6c-0.2,0.3-0.3,0.6-0.3,0.9c0,0.3,0.1,0.6,0.3,0.8c0.2,0.2,0.5,0.4,0.8,0.6c0.3,0.2,0.7,0.3,1.2,0.4
		c0.4,0.1,0.9,0.2,1.4,0.3c0.6,0.1,1.3,0.3,1.8,0.5c0.6,0.2,1.1,0.5,1.5,0.8c0.4,0.3,0.8,0.8,1,1.2c0.2,0.5,0.4,1.1,0.4,1.8
		c0,0.8-0.2,1.5-0.5,2.1c-0.3,0.6-0.8,1.1-1.3,1.4c-0.6,0.4-1.2,0.6-1.9,0.8c-0.7,0.2-1.4,0.2-2.1,0.2c-1.2,0-2.3-0.2-3.2-0.6
		c-0.9-0.4-1.7-1.1-2.5-2.1L464.5,478.2z"/>
</g>
<path fill="#B30838" d="M399.5,154.3c1.8,0.9,3.7,1.3,5.3,1.3c0.6,0,1.2-0.1,1.8-0.2l-1.1-1.5h-6.6L399.5,154.3z"/>
<path fill="#B30838" d="M494.8,416.1c-0.2-3.6,0.2-8.4,0.6-13.6c0.3-3.2,0.6-6.6,0.7-9.8c0.1-2.7,0.2-7.1,0.2-12.2
	c0.1-10.6,0.2-23.8,1.1-27.3c1.3-5.2,1.3-34.3,0-38.8c-0.3-1.1-0.8-2.5-1.4-4c-1.5-4.2-3.4-9.5-3.8-14.8c-0.6-7.1-1.1-12.2-2.4-18.4
	c-1.2-5.9-4.4-19.6-4.5-19.8l-0.2-0.8l-0.8,0.1c-0.2,0-3.9,0.4-6.2,2.5v26.3h-9.8v-30.2h4.2c-1-1.2-2.6-2.4-4.8-4
	c-2.6-1.9-6.2-4.5-6.2-6.1c-0.1-1.7,0.3-2.6,0.7-3.4c0.4-0.9,0.8-1.9,0.1-3.3c-0.3-0.5-1-1.3-2-2.3h-66.9l0,193.5h-0.2l-0.1,20.7
	h97.8C492.8,437.7,495,420.2,494.8,416.1z M470.5,322.1h9.2v26.7h-9.2V322.1z M445.7,255.4h9.8v30.2h-9.8V255.4z M455.6,322.1v26.7
	h-9.2v-26.7H455.6z M421.8,255.4h9.8v30.2h-9.8V255.4z M424,322.1h9.2v26.7H424V322.1z M478.5,378.6v70.6H431v-70.6l-4.8-15.3h56.6
	L478.5,378.6z"/>
<path fill="#B30838" d="M459.2,235.4c-3.8-3.3-10.3-7.4-14.1-7.6c-2.6-0.1-7-4.1-10.1-7c-3.1-2.8-4.8-4.3-6.1-4.3
	c-1.2,0-2.4,0.1-3.1,1c-0.6,0.8-0.3,1.9-0.1,2.7c0.4,1.2,1.7,2,3.1,2.9c0.8,0.5,2.3,1.4,2.3,1.9c0,1-0.1,6-3,6.4
	c-1.5,0.2-3.4-0.3-5.4-0.8c-2.4-0.6-5.1-1.2-8.1-1.1c-4,0.2-6.7,1.8-8.4,2.8c-0.7,0.4-1.2,0.7-1.6,0.8c0,0,0,0,0,0
	c0-0.3,0.2-0.8,0.5-1.7c0.3-0.9,1.7-2.4,3-3.8c1.5-1.7,2.9-3.3,3.4-4.5c0.1-0.3,0.4-1-0.1-1.6c-0.4-0.6-1.1-0.6-1.3-0.6
	c-0.1,0-0.3,0-0.5,0c-0.3,0-0.6,0-0.9,0l-14.6,14.5H459.2z"/>
<path fill="#B30838" d="M525.4,253.1c0.7-1.5,1.4-2.9,0.2-4.1c-1.3-1.3-2.7-2.7-3-5.2c-0.2-2-1.1-2.9-2.8-2.9c-0.4,0-1,0.1-1.5,0.1
	c-0.5,0.1-1,0.1-1.7,0.2c-0.7,0.2-1.9,1-2.2,2.8c-0.2,1.4,0.5,2.4,1.1,3.4c0.5,0.7,0.9,1.4,1.2,2.3c0.1,0.4,0.2,0.7,0.2,0.9
	c-0.3,0-0.7,0-1,0l-0.9,0c-1.9,0-3-1.4-3.8-2.4l-0.2-0.2c-0.2-0.2-0.3-0.5-0.5-0.8c-0.4-0.7-0.9-1.6-2-1.6c-0.3,0-0.6,0.1-0.8,0.2
	c-0.9,0.4-2.5,1.8-2.9,3.5c-0.3,1-0.1,2,0.5,2.8c0.7,0.9,1.4,1.3,2.3,1.3c0.5,0,0.9-0.2,1.3-0.3c0.3-0.1,0.5-0.2,0.7-0.2
	c0,0,0,0,0,0c0,0,0.1,0,0.1,0c0,0.2,0.1,0.5,0.1,0.7c0,0.5,0.1,1.1,0.2,1.9c0.4,2.6,0.2,4.4-4.5,6c-1,0.3-2,0.5-2.9,0.5
	c-1.7,0-2.4-0.6-2.4-0.6l-0.3-0.3h-1.1l-0.5,1.2l0.5,0.4c0,0,0.1,0.1,0.1,0.1l0,0c0.3,0.4,0.3,0.4,1.5,2.7c1,2,1.7,10.1,2,15.7
	c1.4,0.5,2.5,1.6,2.7,3.4c0.4,4.4,1,8.8,1.7,13.1c1,2,2.2,3.4,3.4,3.4l0.2,0c0.1,0,0.1-0.1,0.2-0.1c0.4-0.3,0.7-0.4,1.1-0.6
	c2.7-2.2,5.9-9.6,7.8-14.9H514v-30.2h9.8v2.5C524.1,255.9,524.8,254.3,525.4,253.1z"/>
<path fill="#B30838" d="M272.6,243.1l-210.5,0.1l-0.1,0.1v201.9v2.7h210.5v-18.2h120V242.7h-119v187.1h-1 M238.4,256.7h8.8v32.6
	h-8.8V256.7z M191.6,256.7h8.8v32.6h-8.8V256.7z M143.2,257.1h8.8v32.6h-8.8V257.1z M117.7,257.1h8.8v32.6h-8.8V257.1z M93.3,256.7
	h8.8v32.6h-8.8V256.7z M113.7,381.6v66H91v-66.3l-4.6-14.9h31.9L113.7,381.6L113.7,381.6z M132.6,417.5h-15.2v-28.8h15.2V417.5z
	 M163.3,388.7v28.8h-3.6v30H137v-66.3l-4.6-14.9h31.9l-4.6,15.2h0v7.1H163.3z M206.6,381.6v66h-22.7v-66.3l-4.6-14.9h31.9
	L206.6,381.6L206.6,381.6z M225.2,417.5H210v-28.8h15.2V417.5z M225.2,289.3h-8.8v-32.6h8.8V289.3z M253.3,381.6L253.3,381.6l0,66
	h-22.7v-66.3l-4.6-14.9h31.9L253.3,381.6z M330,421.6h-14.6v-36.2H330V421.6z M315.1,356.6v-36.2h14.6v36.2H315.1z M352.6,421.6
	h-14.6v-36.2h14.6V421.6z M337.7,356.6v-36.2h14.6v36.2H337.7z M361.8,255.4h15.7v15.7h-15.7V255.4z M338.5,255.4h15.7v15.7h-15.7
	V255.4z M314.4,255.4h15.7v15.7h-15.7V255.4z M290.6,255.4h15.7v15.7h-15.7V255.4z M278.8,278.3h110.4v36.7h-22.8v112.3h-5.8V314.9
	h-56.3v112.3h-7.2V314.9h-18.3V278.3z"/>
<path fill="#B30838" d="M586.5,269.1c-1.2,0.2-9.6,1.2-17.9,1.7v14.9h-9.8v-14.6c-4.8-0.1-5.9-0.7-6.2-0.9c-0.8-0.6-1.4-0.9-2.1-0.9
	c-1.1,0-1.8,0.9-2.2,1.5c-0.4,0.5-0.6,0.8-0.9,0.8c-0.1,0-0.4,0-0.8-0.3c-0.1-0.1-0.2-0.2-0.3-0.2v14.7h-9.8v-16.9
	c-2.2,7.9-8.1,29.1-9.4,35l-1.1,4.9c-0.8,3.4-1.7,7.4-2.5,11.1h1.9v26.7h-3.8c-0.1,0.7-0.1,1.4-0.2,2c0.2,6.3,0.8,12.3,2,14.7h46
	l-4.4,15.3v70.6h-41.8c0,0.5,0,0.9,0,1.3h65.4V268.4C588,268.7,587.4,269,586.5,269.1z M547.6,346.5h-9.2v-26.7h9.2V346.5z
	 M570.1,346.5h-9.2v-26.7h9.2V346.5z"/>
<g>
	<path fill="#B30838" d="M517.2,499.8c-3.5,0-8.4-0.2-11.8-1.4c-2.5-0.9-6.9-1.3-12.5-1.3c-8.6,0-16.8,1-17.9,1.5
		c-0.2,0.1-0.5,0.1-0.6-0.1c-0.4-0.6,0.8-3.6,5.3-14.4c3.4-8.1,7.3-17.4,8-20.9c1.3-7.1,6.2-41.2,5.8-47.1
		c-0.2-3.7,0.2-8.5,0.7-13.7c0.3-3.2,0.6-6.6,0.7-9.8c0.1-2.7,0.2-7.1,0.2-12.2c0.1-10.7,0.2-23.9,1.2-27.6c1.4-5.5,1.1-34.3,0-38.1
		c-0.3-1.1-0.8-2.4-1.3-3.9c-1.4-4.1-3.4-9.7-3.9-15.1c-0.6-7-1.1-12.1-2.3-18.2c-1.1-5.4-3.9-17.3-4.4-19.4c-1,0.1-3.8,0.7-5.4,2.3
		c-0.9,0.9-1.3,2-1.6,2.9c-0.4,1.2-0.8,2.3-2.2,2.3c-2.2-0.1-2.5-4.3-2.8-7.7l-0.1-0.6c-0.1-1.2-2.7-3.1-5.3-5
		c-3.3-2.4-6.7-4.9-6.8-7.1c-0.1-2,0.4-3.1,0.8-4c0.4-0.9,0.6-1.3,0.1-2.2c-1-2-11.2-9.9-16.1-10.1c-3.1-0.1-7.5-4.1-10.9-7.3
		c-2.1-2-4.4-4-5.2-4c-1.1,0-1.8,0.1-2,0.5c-0.2,0.3-0.2,0.8,0.1,1.5c0.3,0.8,1.4,1.5,2.6,2.2c1.5,0.9,2.9,1.8,2.9,3
		c0,1.7-0.3,7.1-4.2,7.7c-1.6,0.2-3.7-0.2-5.9-0.8c-2.3-0.6-5-1.2-7.7-1.1c-3.7,0.2-6.1,1.6-7.8,2.6c-0.8,0.5-1.4,0.8-2,1
		c-0.7,0.2-1.2,0.1-1.5-0.3c-0.4-0.6-0.2-1.5,0.4-3.1c0.4-1.1,1.8-2.7,3.2-4.3c1.3-1.5,2.7-3,3.1-4c0.1-0.3,0.1-0.4,0.1-0.4
		c0,0-0.1,0-0.2,0c-0.1,0-0.3,0-0.4,0c-0.2,0-0.4,0-0.6,0c-0.8,0-2-0.1-3-1.3c-0.3-0.4-0.6-0.7-0.9-1c-1.4-1.6-2.1-2.4-0.5-4
		c0.9-0.9,2.2-1,3.2-1.1c0.9-0.1,1.5-0.1,1.7-0.5c0.2-0.5,0.3-1.5-0.2-2.5c-0.4-1-1.5-2.3-3.8-3c-1.4-0.5-3.5-0.8-5.8-1.2
		c-4.5-0.7-9.5-1.6-11.6-3.6l-0.2-0.2c-2-1.9-3-2.9-3-3.9c0-0.7,0.5-1.2,1-1.6l0.5-0.4c2-1.7,7.4-6.2,6.2-8.4
		c-0.4-0.8-2.6-0.9-4.4-0.9c-0.7,0-1.4,0-2.1,0c-4.3,0.1-9.1,0.2-10.3-2.5c-0.5-1.1-1-2.1-1.5-2.9c-1.5-2.5-2.6-4.5,0.2-8.2
		c1.1-1.5,2.5-2.2,4.1-2.2c1.5,0,3,0.7,4,1.2c0.6,0.3,1.1,0.5,1.4,0.5c0.5-0.3,1.2-0.1,1.8,0c0.3,0.1,0.6,0.2,0.9,0.2
		c0.2,0,0.5-0.1,0.7-0.6c0.2-0.6-0.5-2.9-1.2-5c-1.2-3.9-2.5-7.9-1.2-9.3c2-2.1,4.7-6.3,5.4-8.4c0.2-0.5,0.6-1.1,1.8-1.1
		c1.8,0,4.7,1.4,7,2.5l0.7,0.3c1.6,0.8,3.3,1.2,4.7,1.2c1.3,0,2.9-0.3,3.8-1.9c0.4-0.6,0.4-1.3,0.1-1.9c-0.7-1.7-3.4-3-5.6-3.5
		c-2.2-0.5-3.6-1.5-4.1-2.8c-0.5-1.4,0-3.2,1.5-5.3l0.6-0.8c3.1-4.3,7.3-10.3,12.7-10.3c0.7,0,1.5,0.1,2.2,0.3
		c1.1,0.3,2,0.6,2.8,0.9c1.6,0.5,2.5,0.8,3,0.8c0.2,0,0.3,0,0.5-0.9l0-0.2c0.1-0.8-0.6-2.2-1.4-3.6c-1.2-2.3-2.5-4.7-1.3-6.2
		c0.2-0.3,0.4-0.5,0.6-0.7c0.3-0.3,0.5-0.7,0.7-0.9c-0.3,0-0.9,0.1-1.4,0.3c-0.8,0.2-1.9,0.6-3,1c-1.9,0.7-4.1,1.5-5.8,1.5
		c-0.8,0-1.5-0.2-2-0.6c-1.7-1.4-1.9-1.6-1.7-3.2c0-0.3,0.1-0.7,0.1-1.1c0.1-1.6,1.9-1.8,3.8-2.1c1.6-0.2,3.4-0.4,4.2-1.5
		c0.2-0.3,0.5-0.7,0.4-0.9c-0.2-0.5-1.6-0.8-3.2-1.2c-1.2-0.3-2.5-0.6-4-1.1c-4.9-1.6-5.3-1.9-4.8-4.9c0.1-0.4,0.1-0.8,0.2-1.2
		c0.4-2.2,0.8-4.1-2.1-5c-0.8-0.3-1.3-0.7-1.4-1.2c-0.1-1.1,1.2-2.4,4.3-4.3c0.1-0.1,0.2-0.1,0.2-0.1c0.2-0.1,0.5-0.1,1.1-0.1
		c0.2,0,0.5,0,0.8,0c1.2,0,2.8-0.1,3.3-1.3c0.3-0.6,0.5-1.4,0.7-2.4c0.4-1.9,0.9-4.1,2.8-4.1c0.3,0,0.6,0,0.9,0.1
		c1.3,0.4,3.1,1.7,5,3.1c2.8,2,5.9,4.3,8.1,4.1c2.1-0.1,3.4-0.6,4.1-1.4c0.4-0.5,0.6-1.3,0.4-2.3c-0.2-1.7-0.2-1.7-1.2-1.8
		c-0.4-0.1-0.9-0.1-1.7-0.3c-2.7-0.7-5.6-1.6-6.4-3.3c-0.3-0.6-0.3-1.3,0-2c0.8-1.6,1.3-1.9,2-2.3c0.5-0.2,1-0.5,1.8-1.4
		c1-1.2,0.9-1.9,0.7-2.8c-0.1-0.7-0.2-1.5,0.1-2.7c0.5-1.7,1.7-1.9,2.7-1.9c0.6,0,1.3,0.1,2,0.2c0.5,0.1,1.1,0.2,1.7,0.2
		c2.1,0.2,3.5-1.8,4.6-3.3c0.4-0.5,0.7-0.9,1-1.3c0.3-0.3,0.6-0.4,1-0.4c1,0,2.4,0.9,4.2,2c1.6,1,3.3,2.1,5.1,2.7
		c1.7,0.6,4.3,1.3,7.1,1.3c3.8,0,6.8-1.3,9-3.8c4.9-5.5,7.5-8.9,5.1-15c-0.5-1.4-1.2-2.8-1.8-4.1c-1.7-3.8-3.4-7.4-2.4-9.8
		c0.4-1,1.3-1.7,2.5-2.1c1.7-0.6,3.1-0.8,4.1-0.8c1.1,0,1.6,0.3,2.1,0.5c0.3,0.2,0.5,0.3,0.9,0.3c1.5,0,11-5.8,11.7-7.5
		c0.2-0.5,0.6-0.8,1.2-0.8c0.9,0,1.8,0.7,2.3,1.4c0.7,0.8,1,1.6,0.9,2.3c-0.1,0.4,0,0.6,0.2,0.9c0.6,0.7,2.2,0.9,4.3,0.7
		c3.1-0.3,3.8-1.8,4.3-5.9c0.5-4.4,2.1-5.3,5.3-5.5c3-0.2,7.4-0.4,7.4-0.4c0.2,0,3.7,0.4,5.4,3c0.2,0.3,0.4,0.8,0.7,1.3
		c0.9,1.8,2.3,4.5,4.1,5.7c0.4,0.3,1.1,0.5,2.1,0.5c1.8,0,4.2-0.5,6.7-1.1c2.1-0.5,4.2-1,6.1-1.2c0.4,0,0.8-0.1,1.2-0.1
		c5.2,0,6.3,3.9,6.6,6.8c0.2,1.8-0.3,2.9-0.7,3.6c-0.2,0.3-0.3,0.6-0.3,0.7c0.2,0.4,1.8,0.9,2.5,1.2c10.4,3.5,17.5,5.2,21,5.2
		c0.8,0,1.4-0.1,1.8-0.3c1.4-0.6,1.3-0.9,1.2-1.4c-0.3-0.8-0.3-1.6,1.5-2.8c2-1.3,5.9-2.1,9.9-2.1c3.4,0,6.4,0.6,8.5,1.6
		c0.7,0.3,1.4,0.6,2.1,1c4.8,2.2,9.7,4.4,8,8.2c-0.7,1.6-1.8,2.9-2.6,3.9c-0.6,0.7-1.2,1.5-1.1,1.8c0,0.1,0.1,0.2,0.9,0.4
		c0.7,0.1,1.6,0.2,2.5,0.2c1.5,0,6.5-0.3,9.2-3.4c1.5-1.7,3.5-2.7,5.6-2.7c1.7,0,3.4,0.6,4.6,1.7c0.8,0.7,1.2,1.7,1.1,2.7
		c-0.1,1.5-1.4,3.2-3.2,4.3c-0.6,0.4-1.4,0.7-2.2,1.1c-1.2,0.5-2.7,1.2-2.7,1.7c0,0.1,0.1,0.5,1.1,1c1.2,0.7,2.5,1.1,3.7,1.5
		c1.7,0.6,2.8,1,2.9,1.8c0.1,0.6-0.5,1-0.9,1.3c-1.2,0.8-3.7,1-6.4,1.2c-2.9,0.2-6.2,0.5-6.9,1.7c-0.4,0.6-0.7,1.1-1,1.5
		c-0.6,0.8-1,1.4-0.9,1.8c0.1,0.3,0.4,0.6,1,0.9c1.3,0.6,2.6,0.9,4.1,0.9c1.4,0,3.1-0.2,5.6-0.7c2.3-0.5,4.2,0.6,5.1,2.9
		c0.6,1.5,0.7,3.4,0.2,4c-0.1,0.1-0.2,0.3-0.3,0.5c-1.4,2-5.5,8.1-17.5,8.1c-4.4,0-4.6,0.6-4.6,0.6c-0.1,0.7,4.1,2.3,6.1,3
		c0.1-0.1,0.2-0.2,0.4-0.2c0.7,0,4,0.8,4.9,2.5c0.4,0.7,0.3,1.4-0.1,2.1c-0.8,1.2-0.9,2.3-0.5,3.1c0.5,1,2,1.4,3.9,1.3
		c1.2-0.1,2-0.1,2.7-0.1c1.9,0,2.8,0.3,3.1,0.9c0.3,0.7-0.3,1.4-0.5,1.6c-0.8,0.9-3,2-5.4,3.1c-1.8,0.8-4.8,2.2-4.8,2.8
		c0.3,0.3,2.3,0.8,8.3,0.8c6.1,0,14.4-0.5,19.1-1.7c1.5-0.4,3-0.6,4.4-0.6c6,0,10.7,3,10.9,5.1c0.1,1.3-0.7,1.9-1.8,2.7
		c-1.1,0.8-2.4,1.9-3.1,3.9c-0.8,2.4,1.7,4.3,3.8,5.9c1.3,1,2.3,1.8,2.3,2.6c0,1.3-1.8,2-3.9,2.8c-1.2,0.5-2.5,1-3.5,1.7
		c-0.2,0.2-0.5,0.3-0.8,0.4c2.3,1.2,4.4,4.6,5,7.9c0.6,3.5-0.6,6.5-3.2,8.5c-4.5,3.4-8.2,4.2-10.6,4.2c-2.1,0-3.9-0.6-5.3-1.6
		c-1.7-1.4-4.7-2.4-6.8-2.4c-1,0-1.7,0.2-1.9,0.7c0,0,0,0.1,0.1,0.4c1.5,2.5,11.9,9.3,18.2,10.2c6.8,1,19.8,7.4,21.4,10.6
		c0.4,0.9,1,2.7,0,4.8c-1.1,2.3-4.5,5.5-14.4,7.7c-4.8,1-8.9,1.6-12.2,2.1c-5,0.7-8.3,1.2-9,2.5c-0.2,0.4-0.2,0.9,0.1,1.6
		c0.8,1.7,2.2,2.6,4.5,2.6c3,0,7.1-1.4,12.8-4.2c2.1-1,3.8-1.6,5.1-1.6c2.3,0,2.8,1.7,2.8,2.5c0.1,0.1,0.2,0.2,0.3,0.4
		c0.5,1.1,1.1,6.2-4,11.5c-0.8,0.8-1.1,1.4-1,1.8c0.4,0.9,3.8,0.9,4.9,0.9c0.9,0,1.9,0,2.9,0c1,0,2.1,0,3.1,0c3.7,0,7.1,0.3,7.5,2.3
		c0.7,3.3,1.2,11.5-8.5,16.2c-6.6,3.2-9.9,7.3-13.3,11.7c-0.9,1.1-1.8,2.3-2.8,3.5c-1.7,2-3.3,2.9-5,2.9c-2.8,0-5.3-2.7-7.6-5.5
		c-2.3-2.9-5.4-6.8-8.2-6.8c-1,0-1.9,0.5-2.8,1.4c-1.1,1.2-1.6,2.2-1.4,2.9c0.2,0.7,1.2,1,1.7,1.1c0.2,0,0.3,0.1,0.3,0.1
		c0,0,0.1,0,0.3,0.1c7.3,2.3,8.8,5.8,8.7,8.3l0,0.9c-0.1,5.3-0.5,6.4-10.1,10.7c-0.1,0-0.1,0-0.1,0c0,0.1,0.3,0.6,0.5,1
		c0.5,0.8,1.2,1.8,1.3,3.1c0,0.5,0.1,1.1,0.3,1.7c0.5,2.2,1.1,5.1-2.4,6.2c-0.5,0.1-1,0.2-1.6,0.2c-2.6,0-6.5-1.2-10.3-2.3
		c-3.5-1.1-6.9-2.1-8.9-2.1c-2.1,0-3,1.4-3.9,3c-1.1,1.8-2.3,3.8-5.6,4.2c-1.7,0.2-16.5,2-26.5,2c-4.7,0-7.4-0.4-8.4-1.2
		c-0.5-0.4-0.9-0.6-1.2-0.6c-0.5,0-0.8,0.5-1.2,1c-0.5,0.6-1,1.4-2,1.4c-0.5,0-1-0.2-1.5-0.6c-2.7-1.8-6.3-4.6-7.5-5.6
		c-1.2,4.2-8.6,30.7-10.1,37.4c-0.3,1.4-0.7,3.1-1.1,5c-1.7,7.6-4,18-4.3,21.3c-0.3,3.8-0.8,28,1.8,32.5c2.8,4.9-2,29.5-2.5,30.5
		c-0.4,1.4,2.3,35.9,2.8,39.6c0.2,1.6,0,6.8-0.2,12.3c-0.2,4.4-0.4,8.9-0.4,12.2c0,8,3.6,39,5,40.4c0.3,0.1,0.3,0.4,0.3,0.5
		c0,0.3-0.1,0.6-4.1,1C523,499.6,519.9,499.8,517.2,499.8z M492.9,496.4c4,0,9.4,0.2,12.7,1.4c3.2,1.1,8.1,1.3,11.5,1.3
		c5.4,0,10.2-0.5,11.5-0.9c-2-3.9-5.1-34.9-5.1-40.6c0-3.2,0.2-7.8,0.4-12.2c0.2-5.5,0.4-10.6,0.2-12.2c-0.3-2.4-3.3-38.7-2.7-40
		c0.5-1.1,5-25.4,2.5-29.8c-2.7-4.8-2.3-29-1.9-33c0.3-3.3,2.6-13.8,4.4-21.4c0.4-1.8,0.8-3.5,1.1-5c1.6-7.2,10.1-37.7,10.2-38
		l0.1-0.6l0.4,0.4c0,0,4.6,3.8,7.9,6c0.4,0.3,0.8,0.4,1.1,0.4c0.6,0,1-0.5,1.4-1.1c0.4-0.6,0.9-1.3,1.8-1.3c0.5,0,1.1,0.3,1.7,0.8
		c0.6,0.5,2.4,1.1,8,1.1c9.9,0,24.7-1.8,26.4-2c2.9-0.4,4-2.1,5-3.9c1-1.6,2-3.3,4.6-3.3c2.2,0,5.5,1,9.1,2.1
		c3.7,1.1,7.6,2.3,10.1,2.3c0.5,0,1-0.1,1.4-0.2c2.8-0.9,2.4-3.1,1.9-5.3c-0.1-0.7-0.3-1.3-0.3-1.9c-0.1-1.1-0.7-2-1.1-2.7
		c-0.4-0.7-0.7-1.1-0.6-1.6c0.1-0.2,0.2-0.4,0.5-0.5c9.5-4.2,9.5-5.2,9.6-10l0-0.9c0.1-2.3-1.3-5.4-8.2-7.5
		c-0.2-0.1-0.3-0.1-0.4-0.1c0,0-0.1,0-0.2-0.1c-0.6-0.2-1.9-0.5-2.2-1.6c-0.3-0.9,0.2-2.1,1.6-3.6c1-1.1,2.1-1.7,3.3-1.7
		c2.9,0,5.7,3.2,8.8,7.1c2.2,2.7,4.5,5.2,7,5.2c1.5,0,2.9-0.9,4.5-2.6c1-1.1,1.9-2.3,2.8-3.5c3.4-4.2,6.8-8.6,13.6-11.9
		c9.2-4.4,8.7-12.3,8.1-15.4c-0.3-1.5-3.8-1.7-6.8-1.7c-1,0-2,0-3.1,0.1c-1,0-2,0-2.9,0c-3,0-5.1-0.2-5.6-1.3
		c-0.3-0.7,0.1-1.5,1.1-2.6c4.7-4.8,4.3-9.7,3.9-10.6l-0.3,0.2l0-0.6c0-0.7-0.3-2-2.1-2c-1.2,0-2.8,0.5-4.7,1.5
		c-5.8,2.9-10.1,4.3-13.2,4.3c-2.6,0-4.3-1-5.2-3c-0.4-0.9-0.4-1.6-0.1-2.2c0.9-1.6,4.1-2.1,9.6-2.9c3.3-0.5,7.4-1.1,12.1-2.1
		c9.6-2.1,12.9-5.1,13.9-7.3c0.9-1.8,0.4-3.3,0-4.1c-1.4-2.8-13.8-9.2-20.8-10.2c-6.2-0.9-17.1-7.8-18.7-10.7
		c-0.2-0.4-0.3-0.7-0.2-1c0.3-0.7,1.2-1.1,2.5-1.1c2.3,0,5.3,1.1,7.2,2.5c1.2,1,2.9,1.5,4.8,1.5c2.2,0,5.8-0.7,10.1-4
		c2.4-1.8,3.4-4.6,2.9-7.8c-0.6-3.8-3.1-6.9-5.1-7.6c-0.2-0.1-0.3-0.1-0.5-0.2l-1.7-0.6l1.8-0.2c0.6-0.1,1.1-0.3,1.6-0.6
		c1-0.7,2.4-1.2,3.6-1.8c1.7-0.7,3.4-1.4,3.4-2.1c0-0.5-1.1-1.3-2.1-2c-2.1-1.6-5-3.8-4-6.7c0.8-2.3,2.2-3.4,3.3-4.3
		c1-0.8,1.6-1.3,1.5-2.1c-0.2-1.6-4.5-4.4-10.2-4.4c-1.4,0-2.9,0.2-4.3,0.5c-4.8,1.2-13.2,1.7-19.3,1.7c-3.6,0-8.1-0.2-8.8-1
		c-0.2-0.2-0.2-0.4-0.2-0.7c0.2-0.9,2.1-1.8,5.2-3.3c2.1-1,4.4-2.1,5.1-2.9c0.4-0.4,0.5-0.7,0.4-0.8c0-0.1-0.4-0.4-2.4-0.4
		c-0.7,0-1.5,0-2.7,0.1c-2.3,0.1-3.9-0.5-4.6-1.7c-0.4-0.7-0.6-2,0.5-3.8c0.3-0.5,0.3-0.9,0.1-1.3c-0.5-1-2.3-1.7-3.4-2l-0.1,0.3
		h-0.3c-0.5,0-6.8-2-7.7-3.5c-0.2-0.4-0.1-0.7,0-0.8c0.3-0.5,1.1-1,5.3-1c11.6,0,15.6-5.8,16.9-7.7c0.2-0.3,0.3-0.5,0.4-0.6
		c0.2-0.2,0.3-1.8-0.4-3.3c-0.5-1.1-1.4-2.3-3.3-2.3c-0.3,0-0.6,0-0.9,0.1c-2.5,0.5-4.3,0.7-5.7,0.7c-1.7,0-3.1-0.3-4.5-1
		c-0.8-0.4-1.3-0.9-1.4-1.4c-0.2-0.7,0.3-1.5,1-2.4c0.3-0.4,0.7-0.9,1-1.5c0.9-1.5,4.1-1.8,7.5-2c2.4-0.2,5-0.4,6-1.1
		c0.5-0.3,0.6-0.5,0.6-0.6c0-0.3-1.4-0.8-2.5-1.2c-1.1-0.4-2.5-0.9-3.8-1.6c-1.1-0.6-1.6-1.1-1.5-1.7c0-1,1.5-1.6,3.1-2.4
		c0.7-0.3,1.5-0.7,2.1-1c1.6-1,2.7-2.4,2.8-3.7c0.1-0.8-0.2-1.5-0.9-2.1c-1-0.9-2.6-1.5-4.1-1.5c-1.9,0-3.7,0.9-5.1,2.4
		c-2.9,3.4-8.2,3.7-9.8,3.7c-1,0-1.9-0.1-2.7-0.2c-0.5-0.1-1.2-0.3-1.4-0.9c-0.2-0.7,0.4-1.4,1.3-2.5c0.8-1,1.8-2.2,2.5-3.7
		c1.4-3.1-3-5.1-7.7-7.2c-0.7-0.3-1.4-0.6-2.1-1c-2.1-1-5-1.5-8.2-1.5c-3.9,0-7.7,0.8-9.5,2c-1.5,1-1.4,1.5-1.2,2
		c0.3,0.9,0.1,1.5-1.6,2.3c-0.5,0.2-1.2,0.3-2.1,0.3c-5.5,0-17.4-4-21.3-5.3c-2-0.7-2.7-1-2.9-1.6c-0.2-0.4,0-0.8,0.3-1.3
		c0.3-0.7,0.8-1.5,0.6-3.1c-0.6-4.8-2.6-6.5-7-6.1c-1.8,0.2-4,0.7-6,1.1c-2.6,0.6-5,1.1-6.8,1.1c-1.1,0-1.9-0.2-2.5-0.6
		c-2-1.4-3.4-4.2-4.4-6c-0.3-0.5-0.5-1-0.7-1.3c-1.4-2.3-4.7-2.6-4.7-2.6c0,0-4.4,0.2-7.3,0.4c-2.8,0.2-4.1,0.8-4.6,4.9
		c-0.5,4.3-1.3,6.1-4.9,6.5c-2.5,0.3-4.2,0-5-0.9c-0.3-0.4-0.5-0.9-0.4-1.5c0.1-0.4-0.2-1.1-0.7-1.7c-0.6-0.7-1.3-1.1-1.8-1.1
		c-0.2,0-0.4,0-0.5,0.4c-0.8,2.1-10.9,7.9-12.4,7.9c-0.5,0-0.9-0.2-1.2-0.4c-0.4-0.2-0.8-0.5-1.7-0.5c-1,0-2.2,0.3-3.9,0.8
		c-1.1,0.3-1.8,0.9-2.1,1.7c-0.9,2.1,0.7,5.5,2.4,9.2c0.6,1.4,1.3,2.8,1.8,4.2c2.6,6.8-0.9,10.8-5.3,15.8c-2.4,2.7-5.6,4-9.6,4
		c-2.9,0-5.6-0.7-7.3-1.3c-1.9-0.6-3.7-1.8-5.3-2.8c-1.9-1.2-3.7-2.3-4.2-1.7c-0.3,0.3-0.6,0.8-1,1.2c-1.2,1.7-2.8,3.8-5.3,3.6
		c-0.6-0.1-1.2-0.1-1.8-0.2c-0.7-0.1-1.4-0.2-1.9-0.2c-1.1,0-1.7,0.4-2,1.4c-0.3,1-0.2,1.6-0.1,2.3c0.2,1,0.3,2-0.9,3.4
		c-0.9,1-1.5,1.4-2,1.6c-0.6,0.3-1,0.5-1.7,1.9c-0.2,0.5-0.2,0.9,0,1.3c0.7,1.5,4.1,2.4,5.9,2.9c0.7,0.2,1.2,0.3,1.6,0.3
		c1.5,0.2,1.5,0.5,1.8,2.5c0.2,1.2,0,2.2-0.6,2.9c-0.8,1-2.2,1.5-4.6,1.6c-2.4,0.2-5.7-2.2-8.6-4.2c-1.9-1.3-3.6-2.6-4.8-3
		c-1.7-0.5-2.2,0.9-2.8,3.4c-0.2,1-0.4,1.9-0.8,2.5c-0.8,1.5-2.7,1.7-4,1.7c-0.3,0-0.6,0-0.8,0c-0.2,0-0.3,0-0.5,0
		c-0.2,0-0.2,0-0.3,0c0,0-0.1,0-0.2,0.1c-3.7,2.2-4,3.2-4,3.5c0,0.3,0.5,0.5,0.9,0.6c3.5,1,3,3.6,2.6,5.8c-0.1,0.4-0.1,0.8-0.2,1.2
		c-0.3,2.4-0.4,2.5,4.3,4.1c1.4,0.5,2.7,0.8,3.9,1c2.1,0.5,3.4,0.8,3.7,1.7c0.2,0.5,0,1-0.5,1.6c-1,1.2-2.9,1.5-4.7,1.7
		c-2,0.3-3.2,0.5-3.2,1.4c0,0.5-0.1,0.8-0.1,1.1c-0.1,1.2-0.1,1.2,1.4,2.5c0.4,0.3,0.9,0.4,1.5,0.4c1.6,0,3.7-0.8,5.6-1.5
		c1.2-0.4,2.2-0.8,3.1-1c0.9-0.2,1.4-0.3,1.7-0.3c0.1,0,0.5,0,0.7,0.3c0.2,0.4-0.1,0.8-0.9,1.8c-0.2,0.2-0.4,0.5-0.6,0.7
		c-0.9,1.1,0.3,3.4,1.4,5.4c0.9,1.7,1.6,3.1,1.4,4.1l0,0.2c-0.2,0.9-0.3,1.6-1.2,1.6c-0.6,0-1.4-0.3-3.2-0.8
		c-0.8-0.2-1.7-0.5-2.8-0.9c-0.7-0.2-1.3-0.3-2-0.3c-5,0-9.1,5.8-12.1,10l-0.6,0.8c-1.4,1.9-1.8,3.4-1.4,4.6
		c0.4,1.1,1.6,1.8,3.5,2.3c2.4,0.6,5.3,2,6.1,3.9c0.4,0.9,0.3,1.7-0.2,2.6c-0.9,1.5-2.4,2.3-4.5,2.3c-1.5,0-3.3-0.5-5.1-1.3
		l-0.7-0.4c-2.3-1.1-5.1-2.5-6.7-2.5c-0.8,0-1,0.3-1.1,0.6c-0.7,2.2-3.4,6.5-5.5,8.7c-1,1.1,0.4,5.4,1.4,8.5
		c0.9,2.9,1.5,4.6,1.2,5.5c-0.2,0.7-0.7,1.1-1.4,1.1c-0.4,0-0.7-0.1-1.1-0.2c-0.5-0.1-1-0.2-1.2-0.1c-0.4,0.2-1.1-0.1-2.1-0.5
		c-1-0.5-2.4-1.1-3.7-1.1c-1.4,0-2.5,0.6-3.5,1.9c-2.5,3.3-1.6,4.9-0.1,7.4c0.5,0.9,1.1,1.8,1.5,3c0.8,1.9,4.1,2.1,7.3,2.1
		c0.8,0,1.5,0,2.3,0c0.7,0,1.4,0,2.1,0c2.7,0,4.5,0.2,5.1,1.3c1.2,2.4-2.6,6.1-6.4,9.3l-0.5,0.4c-0.5,0.4-0.7,0.8-0.8,1.1
		c0,0.7,1,1.7,2.8,3.3l0.3,0.2c2,1.9,6.9,2.7,11.2,3.4c2.2,0.4,4.4,0.7,5.9,1.2c2.7,0.8,3.8,2.3,4.3,3.5c0.5,1.1,0.5,2.3,0.2,3.1
		c-0.4,0.8-1.3,0.9-2.3,0.9c-1,0.1-2,0.1-2.8,0.8c-1.1,1.1-0.9,1.3,0.5,3c0.3,0.3,0.6,0.6,0.9,1c1.1,1.2,2.2,1.1,3,1.1
		c0.2,0,0.3,0,0.4,0c0.2,0,0.6,0,0.8,0.3c0.2,0.3,0.1,0.8,0,1.1c-0.4,1.1-1.8,2.7-3.2,4.3c-1.4,1.5-2.7,3-3.1,4
		c-0.2,0.6-0.7,2.1-0.5,2.5c0.1,0.1,0.3,0.1,0.7,0c0.4-0.1,1-0.4,1.7-0.9c1.7-1,4.2-2.6,8.1-2.7c2.9-0.1,5.6,0.5,8,1.1
		c2.1,0.5,4.1,1,5.7,0.8c3.3-0.5,3.5-5.4,3.5-7c0-0.8-1.3-1.6-2.5-2.4c-1.3-0.8-2.6-1.6-2.9-2.6c-0.2-0.7-0.4-1.6,0-2.2
		c0.4-0.5,1.2-0.8,2.6-0.8c1.1,0,2.8,1.5,5.7,4.2c3.4,3.1,7.6,7,10.5,7.1c5.1,0.3,15.6,8.3,16.7,10.5c0.6,1.2,0.3,1.9-0.1,2.8
		c-0.3,0.8-0.8,1.9-0.7,3.7c0.1,1.9,3.5,4.3,6.5,6.5c2.9,2.1,5.4,3.9,5.6,5.5l0.1,0.6c0.2,2.6,0.6,6.9,2.1,7l0.1,0
		c0.7,0,0.9-0.6,1.3-1.8c0.3-1,0.8-2.2,1.8-3.2c2.2-2.2,6-2.6,6.2-2.6l0.3,0l0.1,0.3c0,0.1,3.2,13.9,4.5,19.8
		c1.3,6.1,1.8,11.2,2.4,18.3c0.5,5.3,2.3,10.7,3.9,14.9c0.5,1.5,1,2.8,1.3,4c1.3,4.5,1.3,33.3,0,38.5c-0.9,3.6-1,16.8-1.1,27.4
		c0,5.1-0.1,9.5-0.2,12.2c-0.1,3.2-0.4,6.6-0.7,9.8c-0.4,5.1-0.9,10-0.6,13.6c0.4,5.9-4.6,40.1-5.8,47.2c-0.6,3.6-4.6,12.8-8,21
		c-2.3,5.6-5,11.8-5.3,13.4C477.3,497.2,485.7,496.4,492.9,496.4z M510.5,300.7c-3.3,0-7-13.8-7.2-17.8c-0.2-4-0.9-15-2.2-17.5
		c-1.2-2.3-1.2-2.3-1.5-2.8l-0.3-0.4l0.2-0.5h0.4l0.1,0.1c0,0,0.9,0.8,2.8,0.8c0.9,0,1.9-0.2,3-0.5c4.7-1.5,5.3-3.4,4.9-6.6
		c-0.1-0.8-0.2-1.4-0.2-1.8c-0.1-1.2-0.1-1.2-0.7-1.3c-0.4,0-0.7,0.1-1,0.2c-0.3,0.1-0.7,0.3-1.1,0.3c-0.7,0-1.2-0.3-1.8-1.1
		c-0.5-0.6-0.7-1.4-0.4-2.3c0.4-1.4,1.7-2.7,2.6-3.1c0.2-0.1,0.4-0.1,0.6-0.1c0.7,0,1.1,0.6,1.5,1.3c0.2,0.3,0.3,0.6,0.5,0.8
		l0.1,0.2c0.8,1,2.1,2.6,4.2,2.6h0.1c0.3,0,0.6,0,0.8,0c0.8,0,1.4,0,1.6-0.2c0.1-0.2,0-0.7-0.2-1.5c-0.3-1-0.9-1.8-1.3-2.4
		c-0.6-0.9-1.2-1.8-1-3c0.3-1.9,1.7-2.3,1.8-2.3c0.6-0.1,1.2-0.1,1.7-0.2c0.6-0.1,1-0.1,1.5-0.1c1.4,0,2,0.7,2.2,2.4
		c0.3,2.7,1.9,4.3,3.2,5.6c0.9,0.9,0.3,2-0.3,3.4c-0.6,1.3-1.4,2.9-1.6,5.1c-0.2,1.5-0.3,3.9-0.5,6.6c-0.3,5.5-0.7,12.4-1.8,16
		c-1.3,4.8-7.1,19.7-10.4,20.2C510.6,300.7,510.6,300.7,510.5,300.7z M500.9,263.1c0.2,0.4,0.5,0.9,0.9,1.9
		c1.6,3.2,2.3,17.7,2.3,17.8c0.2,4.5,4,17.1,6.4,17.1c2.4-0.3,8.1-13.5,9.8-19.6c1-3.6,1.4-10.4,1.7-15.9c0.2-2.7,0.3-5.1,0.5-6.6
		c0.3-2.3,1.1-4,1.7-5.3c0.7-1.4,1-2.1,0.5-2.6c-1.3-1.3-3.1-3.1-3.4-6c-0.2-1.6-0.7-1.7-1.5-1.7c-0.4,0-0.8,0.1-1.4,0.1
		c-0.5,0.1-1,0.1-1.6,0.2c-0.2,0.1-1,0.4-1.2,1.7c-0.1,0.8,0.3,1.5,0.9,2.4c0.5,0.7,1.1,1.5,1.4,2.6c0.3,1,0.5,1.7,0.1,2.1
		c-0.3,0.5-1,0.5-2.2,0.5c-0.2,0-0.5,0-0.8,0h-0.1c-2.5,0-3.9-1.8-4.8-2.9l-0.1-0.2c-0.2-0.3-0.4-0.6-0.6-0.9
		c-0.4-0.7-0.6-1-1.1-0.8c-0.7,0.3-1.9,1.5-2.1,2.6c-0.2,0.6-0.1,1.1,0.3,1.6c0.6,0.7,1,0.8,1.2,0.8c0.3,0,0.5-0.1,0.8-0.2
		c0.3-0.1,0.7-0.3,1.2-0.3h0.1c1.3,0.1,1.3,0.5,1.4,1.9c0,0.5,0.1,1,0.2,1.8c0.5,3.5-0.3,5.8-5.4,7.4c-1.2,0.4-2.3,0.6-3.3,0.6
		C502.1,263.4,501.4,263.3,500.9,263.1z"/>
	<path fill="#B30838" d="M517.2,500.7c-3.6,0-8.6-0.2-12.1-1.4c-2.4-0.8-6.6-1.3-12.2-1.3c-8.6,0-16.5,1-17.4,1.4
		c-0.7,0.3-1.5,0.1-1.9-0.5c-0.7-1-0.4-2,5.2-15.3l0.1-0.3c3.4-8,7.2-17,7.8-20.4c1.3-7.1,6.2-41,5.8-46.8
		c-0.2-3.7,0.2-8.6,0.6-13.8l0.1-0.7c0.3-3,0.5-6.2,0.7-9.2c0.1-2.6,0.2-7,0.2-12.1c0.1-10.9,0.2-24.1,1.2-27.9
		c1.3-5.2,1.1-34,0-37.6c-0.3-1.1-0.8-2.4-1.3-3.9c-1.5-4.2-3.5-9.8-3.9-15.4c-0.6-7-1.1-12-2.3-18.1c-1-4.8-3.3-14.8-4.2-18.5
		c-1.1,0.3-2.9,0.8-4,1.9c-0.8,0.8-1.1,1.7-1.4,2.6c-0.4,1.2-1,2.9-3,2.9c-3.2-0.2-3.6-4.8-3.9-8.6l0-0.6c-0.1-0.8-3.1-2.9-4.8-4.2
		c-3.7-2.7-7.1-5.2-7.2-7.9c-0.1-2.2,0.5-3.5,0.8-4.4c0.4-0.9,0.4-1,0.2-1.4c-0.8-1.5-10.7-9.3-15.3-9.6c-3.5-0.2-7.7-4.1-11.5-7.5
		c-1.5-1.3-3.9-3.6-4.6-3.7c-0.6,0-0.9,0.1-1.1,0.1c0,0.1,0.1,0.3,0.2,0.6c0.1,0.4,1.5,1.2,2.2,1.7c1.6,1,3.3,2.1,3.3,3.8
		c0,1.9-0.4,8-5,8.6c-1.7,0.3-4-0.2-6.3-0.8c-2.3-0.6-4.8-1.2-7.5-1c-3.5,0.2-5.7,1.5-7.3,2.5c-0.8,0.5-1.5,0.9-2.2,1.1
		c-1.4,0.3-2.1-0.2-2.5-0.7c-0.7-1-0.3-2.3,0.3-4c0.5-1.3,1.9-2.9,3.4-4.6c0.8-1,1.8-2,2.4-2.8c-0.7,0-2.2-0.2-3.5-1.7
		c-0.3-0.4-0.6-0.7-0.8-1c-1.4-1.6-2.7-3-0.5-5.3c1.2-1.2,2.8-1.3,3.9-1.3c0.3,0,0.8,0,1-0.1c0-0.1,0-0.8-0.3-1.5
		c-0.3-0.8-1.2-1.9-3.3-2.5c-1.3-0.4-3.3-0.8-5.4-1.1l-0.3,0c-4.6-0.8-9.8-1.6-12.1-3.9l-0.2-0.2c-2.2-2.1-3.3-3.2-3.3-4.6
		c0-1.1,0.8-1.9,1.3-2.3l0.5-0.4c6.1-5.1,6.2-6.8,6-7.3c-0.1,0-0.7-0.4-3.6-0.4c-0.6,0-1.3,0-2,0c-0.9,0-1.7,0-2.5,0
		c-3.9,0-7.6-0.4-8.8-3.2c-0.4-1-1-1.9-1.4-2.8c-1.5-2.6-3-5.1,0.3-9.3c1.3-1.7,3-2.6,4.8-2.6c1.7,0,3.3,0.7,4.4,1.3
		c0.3,0.1,0.7,0.3,0.9,0.4c0.7-0.2,1.5-0.1,2.1,0.1c0.1,0,0.3,0.1,0.4,0.1c0-0.8-0.8-3.1-1.2-4.3c-1.4-4.3-2.7-8.4-1-10.2
		c1.9-2,4.5-6.1,5.2-8.1c0.4-1.1,1.4-1.8,2.7-1.8c2,0,4.9,1.4,7.4,2.6l0.8,0.4c1.5,0.7,3,1.1,4.3,1.1c1.5,0,2.5-0.5,3-1.4
		c0.2-0.4,0.2-0.7,0.1-1.1c-0.5-1.1-2.6-2.4-5-3c-2.5-0.6-4.1-1.7-4.7-3.4c-0.6-1.7-0.1-3.8,1.6-6.1l0.6-0.8
		c3.2-4.5,7.6-10.7,13.5-10.7c0.8,0,1.7,0.1,2.5,0.4c1.1,0.3,2,0.6,2.8,0.9c0.8,0.3,1.6,0.5,2.2,0.7c0,0,0,0,0-0.1
		c0.1-0.6-0.7-2.2-1.2-3.1c-1.2-2.3-2.6-4.9-1.5-6.9c-0.5,0.2-1.1,0.4-1.8,0.6c-2,0.7-4.3,1.6-6.2,1.6c-1.1,0-2-0.3-2.6-0.8
		c-1.9-1.6-2.2-2-2.1-4c0-0.3,0.1-0.7,0.1-1.1c0.1-2.4,2.6-2.7,4.6-3c1.3-0.2,3-0.4,3.6-1.1c-0.6-0.2-1.5-0.4-2.3-0.6
		c-1.1-0.3-2.5-0.6-4-1.1c-4.9-1.6-6-2.1-5.5-5.9c0-0.3,0.1-0.7,0.2-1l0-0.2c0.5-2.4,0.5-3.3-1.4-3.9c-1.7-0.5-2-1.5-2.1-2.1
		c-0.2-1.5,1.2-3.1,4.8-5.2c0.5-0.3,0.9-0.4,1.3-0.4l0.5,0c1.9,0.1,3-0.1,3.3-0.7c0.3-0.5,0.4-1.3,0.6-2.1c0.5-2.1,1.1-4.8,3.7-4.8
		c0.4,0,0.8,0.1,1.2,0.2c1.4,0.4,3.2,1.7,5.2,3.1l0.2,0.2c2.4,1.7,5.4,3.9,7.3,3.9c2.4-0.2,3.2-0.6,3.5-1c0.3-0.3,0.3-0.8,0.2-1.6
		c-0.1-0.4-0.1-0.8-0.2-1c-0.1,0-0.1,0-0.2,0c-0.4-0.1-1-0.2-1.8-0.4c-3-0.8-6-1.7-7-3.8c-0.4-0.9-0.4-1.8,0-2.8
		c0.8-1.8,1.6-2.3,2.4-2.7c0.4-0.2,0.8-0.4,1.5-1.2c0.7-0.8,0.6-1.2,0.5-2c-0.1-0.8-0.3-1.7,0.1-3.1c0.5-1.7,1.7-2.6,3.6-2.6
		c0.6,0,1.3,0.1,2,0.2c0.7,0.1,1.3,0.2,1.9,0.2h0c1.6,0,2.8-1.5,3.8-2.9c0.5-0.6,0.8-1,1.1-1.4c0.4-0.5,1-0.7,1.7-0.7
		c1.3,0,2.8,0.9,4.7,2.1c1.6,1,3.3,2,4.9,2.6c1.6,0.6,4.1,1.2,6.7,1.2c3.5,0,6.3-1.2,8.3-3.4c4.7-5.4,7.1-8.4,5-14
		c-0.5-1.3-1.2-2.7-1.8-4.1c-1.8-4-3.6-7.8-2.4-10.5c0.5-1.2,1.6-2.1,3.1-2.6c1.8-0.6,3.3-0.9,4.4-0.9c1.3,0,2,0.4,2.5,0.7
		c0.3,0.1,0.3,0.2,0.4,0.2c1.4-0.2,10.1-5.5,10.8-6.9c0.4-0.9,1.1-1.4,2.1-1.4c1.5,0,2.7,1.3,3.1,1.7c0.9,1,1.3,2.1,1.1,3
		c0.1,0.3,0.7,0.5,2.1,0.5c0.4,0,0.9,0,1.4-0.1c2.3-0.3,2.9-0.9,3.4-5c0.6-5,2.7-6.1,6.2-6.4c2.9-0.2,7.4-0.4,7.5-0.4
		c0.2,0,4.2,0.4,6.2,3.4c0.2,0.4,0.5,0.8,0.8,1.4c0.8,1.6,2.2,4.2,3.8,5.4c0.2,0.1,0.6,0.3,1.5,0.3c1.7,0,4-0.5,6.4-1.1
		c2.2-0.5,4.3-1,6.3-1.2c0.5,0,0.9-0.1,1.3-0.1c6.7,0,7.4,5.8,7.6,7.7c0.2,2-0.4,3.2-0.8,4c0.3,0.1,0.8,0.3,1.6,0.6
		c10.3,3.4,17.3,5.2,20.7,5.2c0.9,0,1.3-0.1,1.4-0.2c0.3-0.1,0.5-0.2,0.6-0.3c-0.4-1.6,0.2-2.7,1.9-3.8c2.1-1.4,6.2-2.3,10.5-2.3
		c3.5,0,6.7,0.6,8.9,1.7c0.5,0.2,0.9,0.4,1.4,0.7l0.6,0.3c4.9,2.3,10.5,4.8,8.5,9.5c-0.8,1.8-1.9,3.1-2.8,4.1
		c-0.1,0.2-0.4,0.4-0.5,0.7c0.6,0.1,1.3,0.2,2,0.2c1.4,0,6-0.2,8.5-3.1c1.7-1.9,3.9-3,6.4-3c1.9,0,3.8,0.7,5.2,1.9
		c1.1,0.9,1.6,2.2,1.5,3.5c-0.2,1.8-1.6,3.8-3.6,5c-0.6,0.4-1.4,0.7-2.1,1c-0.5,0.2-1.4,0.6-2,0.9c0.1,0.1,0.2,0.1,0.3,0.2
		c1.2,0.6,2.5,1.1,3.5,1.5c2,0.7,3.4,1.2,3.6,2.6c0.1,0.8-0.3,1.5-1.3,2.2c-1.4,1-4,1.2-6.8,1.4c-2.1,0.2-5.7,0.4-6.2,1.2
		c-0.4,0.6-0.7,1.1-1.1,1.6c-0.2,0.3-0.5,0.7-0.7,1c0.1,0.1,0.2,0.2,0.4,0.3c2.2,1.1,4.2,1.1,9.1,0.1c2.8-0.6,5.1,0.8,6.2,3.4
		c0.6,1.5,1,4,0,5c0,0-0.1,0.2-0.2,0.3c-1.4,2.1-5.8,8.5-18.3,8.5c-1,0-1.8,0-2.4,0.1c1,0.5,2.5,1.1,3.8,1.5
		c0.1-0.1,0.3-0.1,0.5-0.1c0.7,0,4.5,0.8,5.8,3c0.5,1,0.5,2.1-0.1,3.1c-0.6,0.9-0.7,1.7-0.5,2.1c0.3,0.6,1.5,0.9,3,0.8
		c1.2-0.1,2.1-0.1,2.8-0.1c1.7,0,3.4,0.2,3.9,1.4c0.3,0.6,0.3,1.5-0.7,2.6c-1,1.1-3.3,2.2-5.7,3.3c-0.7,0.3-2,0.9-3,1.5
		c1.1,0.1,3,0.2,6.1,0.2c6.1,0,14.2-0.5,18.9-1.7c1.5-0.4,3.1-0.6,4.7-0.6c6.3,0,11.5,3.2,11.8,5.9c0.2,1.8-1,2.7-2.1,3.6
		c-1,0.8-2.2,1.7-2.8,3.5c-0.5,1.6,1.2,3.1,3.4,4.8c1.5,1.2,2.7,2.1,2.7,3.4c0,1.9-2.2,2.8-4.5,3.7c-1,0.4-2,0.8-2.8,1.3
		c2,1.7,3.7,4.7,4.1,7.7c0.6,3.8-0.6,7.2-3.5,9.4c-4.7,3.6-8.6,4.4-11.1,4.4c-2.3,0-4.3-0.6-5.8-1.8c-1.6-1.2-4.3-2.2-6.2-2.2
		c-0.2,0-0.4,0-0.6,0c2.2,2.5,11.3,8.6,17.1,9.4c6.6,0.9,20.2,7.4,22.1,11.1c0.5,1,1.2,3.1,0,5.6c-1.2,2.5-4.8,6-15.1,8.2
		c-4.8,1-8.9,1.6-12.2,2.1c-4.1,0.6-7.9,1.2-8.3,2c0,0.1,0,0.3,0.2,0.7c1.5,3.4,6.7,2.6,16.1-2.1c2.2-1.1,4-1.7,5.5-1.7
		c2.4,0,3.5,1.5,3.8,3c0.1,0.1,0.2,0.3,0.2,0.5c0.6,1.4,1.2,6.9-4.2,12.5c-0.3,0.3-0.5,0.6-0.6,0.8c0.4,0.1,1.4,0.3,3.9,0.3
		c0.8,0,1.5,0,2.4,0l0.5,0c1,0,2.1,0,3.1,0c3.8,0,7.9,0.2,8.4,3c0.7,3.5,1.2,12.3-9,17.3c-6.4,3.1-9.6,7.1-13,11.4
		c-0.9,1.2-1.9,2.4-2.9,3.5c-1.9,2.2-3.8,3.2-5.8,3.2c-3.2,0-5.9-2.8-8.4-5.9c-2.1-2.6-5.1-6.4-7.5-6.4c-0.7,0-1.4,0.3-2,1.1
		c-1.1,1.2-1.2,1.8-1.2,2c0,0.1,0.2,0.2,1,0.4c0.2,0.1,0.4,0.1,0.5,0.2c8.1,2.5,9.6,6.4,9.5,9.3l0,0.9c-0.2,5.7-0.9,7.1-9.8,11.1
		c0.5,0.8,1.3,2.1,1.4,3.6c0,0.4,0.1,1,0.3,1.6c0.4,2.1,1.3,6-3.1,7.3c-2.7,0.8-7.6-0.7-12.4-2.1c-3.5-1.1-6.8-2-8.7-2
		c-1.5,0-2.1,0.9-3.1,2.5c-1.1,1.9-2.5,4.2-6.3,4.7c-1.7,0.2-16.5,2-26.6,2c-6.5,0-8.2-0.8-9.1-1.5c-0.4-0.4-0.6-0.4-0.6-0.4
		c0,0-0.2,0.4-0.4,0.6c-0.5,0.7-1.3,1.8-2.7,1.8c-0.7,0-1.3-0.2-2.1-0.7c-2.2-1.5-4.8-3.5-6.4-4.8c-2.8,9.9-8.4,30.2-9.7,36
		l-1.2,5.5c-1.7,7.4-3.9,17.5-4.2,20.6c-0.4,4.3-0.7,27.8,1.7,32c3,5.4-2,30.3-2.4,31.3c-0.2,1.6,2.2,34.6,2.8,39.1
		c0.2,1.7,0,6.6-0.2,12.4c-0.2,4.6-0.4,9.1-0.4,12.2c0,8.2,3.4,36.8,4.7,39.7c0.4,0.3,0.6,0.8,0.5,1.3c-0.2,1.1-1.1,1.4-4.9,1.9
		C523.1,500.6,520,500.7,517.2,500.7z M492.9,495.4c4.1,0,9.6,0.2,13,1.4c3.1,1,7.8,1.3,11.2,1.3c4.4,0,8.3-0.4,10.2-0.7
		c-2.1-7.1-4.8-35-4.8-39.9c0-3.2,0.2-7.8,0.4-12.2l0-0.4c0.2-5,0.4-10.3,0.2-11.7c0-0.4-3.4-38.7-2.6-40.5c0.6-1.7,4.7-25.1,2.5-29
		c-3-5.3-2.3-30.5-2-33.5c0.3-3.4,2.7-13.8,4.4-21.5c0.4-1.9,0.8-3.6,1.1-5c1.6-7.2,10.2-37.8,10.3-38.1l0.5-1.9l1.6,1.3
		c0.1,0,4.5,3.7,7.8,5.9c0.4,0.3,0.6,0.3,0.6,0.3c0.1,0,0.4-0.4,0.6-0.7c0.5-0.7,1.2-1.7,2.5-1.7c0.7,0,1.5,0.3,2.3,1
		c0.1,0.1,1.2,0.9,7.3,0.9c9.4,0,23.5-1.7,26.3-2c2.4-0.3,3.3-1.7,4.3-3.4c1-1.7,2.3-3.8,5.4-3.8c2.3,0,5.8,1,9.4,2.2
		c3.7,1.1,7.5,2.3,9.8,2.3c0.5,0,0.9-0.1,1.1-0.1c1.8-0.6,1.8-1.7,1.2-4.2c-0.2-0.8-0.3-1.4-0.3-2c0-0.8-0.5-1.6-1-2.2
		c-0.5-0.8-1-1.5-0.7-2.4c0.1-0.3,0.4-0.8,1-1.1c8.9-4,8.9-4.7,9-9.2l0-0.9c0.1-2.8-2.5-5-7.5-6.6l-0.2-0.1c-0.1,0-0.1,0-0.2-0.1
		c-0.9-0.2-2.6-0.7-3-2.3c-0.4-1.3,0.2-2.8,1.8-4.5c1.2-1.3,2.5-2,4-2c3.3,0,6.3,3.4,9.5,7.4c2,2.5,4.2,4.9,6.3,4.9
		c1.2,0,2.4-0.8,3.8-2.3c1-1.1,1.9-2.3,2.8-3.4c3.5-4.4,7-8.8,13.9-12.2c8.6-4.2,8.2-11.4,7.6-14.4c0,0-0.2-0.9-5.8-0.9
		c-1,0-2,0-3,0.1c-1,0-2,0-2.9,0c-3.6,0-5.8-0.3-6.5-1.9c-0.7-1.6,0.8-3.1,1.3-3.6c3.4-3.5,3.9-6.9,3.9-8.5l-0.5,0.3l0-2.1
		c0-0.7-0.3-1-1.2-1c-0.7,0-2,0.2-4.3,1.4c-5.9,3-10.4,4.4-13.6,4.4c-3.7,0-5.4-1.9-6.1-3.6c-0.5-1.2-0.5-2.2-0.1-3.1
		c1.1-2,4.4-2.5,10.3-3.3c3.3-0.5,7.4-1.1,12.1-2.1c9.7-2.1,12.5-5.1,13.2-6.8c0.7-1.4,0.4-2.5,0-3.3c-1.2-2.3-13.1-8.7-20.1-9.7
		c-6.6-0.9-17.7-8.1-19.4-11.1c-0.5-0.8-0.4-1.5-0.2-1.9c0.3-0.8,1.2-1.7,3.4-1.7c2.5,0,5.7,1.1,7.8,2.7c1.1,0.8,2.5,1.2,4.2,1.2
		c2.1,0,5.4-0.7,9.5-3.8c2.1-1.6,3-4.1,2.6-6.9c-0.6-3.7-3-6.3-4.4-6.8L638,134l6.4-0.6c0.4,0,0.8-0.2,1.2-0.4
		c1.1-0.8,2.4-1.3,3.8-1.8c0.9-0.3,2.2-0.9,2.7-1.3c-0.3-0.4-1.1-0.9-1.6-1.3c-2.2-1.7-5.5-4.2-4.3-7.7c0.8-2.6,2.5-3.8,3.6-4.7
		c1-0.8,1.2-1,1.1-1.2c-0.1-0.8-3.7-3.6-9.2-3.6c-1.4,0-2.7,0.2-4,0.5c-4.9,1.2-13.3,1.8-19.5,1.8c-8.4,0-9.2-0.9-9.5-1.3
		c-0.4-0.4-0.5-0.9-0.4-1.5c0.3-1.4,2.1-2.3,5.7-4c1.4-0.7,3.4-1.6,4.4-2.3c-0.7,0-1.7,0-3.4,0.1c-2.6,0.2-4.6-0.6-5.5-2.2
		c-0.5-0.9-0.9-2.5,0.5-4.8c0.1-0.2,0.1-0.3,0.1-0.4c-0.2-0.4-1-0.9-1.9-1.2l-1,0c-0.7,0-7.4-2.1-8.5-4c-0.3-0.6-0.3-1.2,0-1.8
		c0.5-0.9,1.7-1.5,6.1-1.5c11.1,0,14.9-5.5,16.1-7.3c0.1-0.2,0.3-0.4,0.4-0.5c0-0.3,0-1.4-0.5-2.5c-0.8-1.8-2-1.8-2.4-1.8
		c-0.2,0-0.5,0-0.7,0.1c-2.6,0.5-4.4,0.7-5.9,0.7c-1.9,0-3.4-0.3-4.9-1.1c-1.1-0.5-1.7-1.2-1.9-2c-0.3-1.2,0.4-2.1,1.2-3.2
		c0.3-0.5,0.7-0.9,1-1.4c1.2-2,4.4-2.2,8.2-2.5c1.7-0.1,3.8-0.3,4.9-0.6c-0.3-0.1-0.7-0.3-1-0.4c-1.2-0.4-2.6-0.9-4-1.6
		c-0.9-0.5-2.1-1.3-2-2.6c0.1-1.6,1.8-2.4,3.7-3.2c0.8-0.4,1.5-0.7,2-1c1.3-0.8,2.3-2,2.4-3c0-0.5-0.1-0.9-0.6-1.3
		c-0.9-0.8-2.1-1.2-3.4-1.2c-1.7,0-3.2,0.7-4.4,2.1c-3.2,3.7-8.8,4-10.5,4c-1,0-2-0.1-2.8-0.3c-0.4-0.1-1.7-0.3-2.1-1.5
		c-0.4-1.2,0.4-2.2,1.4-3.4c0.8-1,1.8-2.1,2.4-3.5c0.9-2.1-2.3-3.7-7.2-6l-2.1-1c-1.9-0.9-4.7-1.4-7.8-1.4c-3.7,0-7.3,0.7-9,1.8
		c-0.8,0.5-0.9,0.7-0.9,0.7c0.7,2.1-0.7,3-2.1,3.6c-0.6,0.3-1.4,0.4-2.4,0.4c-5.6,0-17.6-4-21.5-5.3c-2.1-0.7-3.1-1.2-3.5-2.2
		c-0.3-0.9,0-1.6,0.3-2.1c0.3-0.6,0.7-1.3,0.5-2.6c-0.6-5-2.8-5.6-6-5.3c-1.7,0.2-3.8,0.6-5.9,1.1c-4.5,1-8.3,1.7-10.2,0.4
		c-2.2-1.5-3.7-4.4-4.7-6.3l-0.1-0.3c-0.2-0.4-0.4-0.7-0.5-1c-1.1-1.8-3.6-2.1-4-2.2c-0.1,0-0.2,0-0.2,0c-1.1,0.1-4.5,0.2-6.9,0.4
		c-2.4,0.2-3.3,0.4-3.8,4c-0.5,4-1.2,6.8-5.8,7.4c-2.9,0.3-4.8-0.1-5.8-1.3c-0.5-0.6-0.7-1.4-0.6-2.2c0,0-0.1-0.4-0.5-0.9
		c-0.3-0.4-0.6-0.6-0.8-0.7c-1.7,2.6-11.3,8.2-13.1,8.2c-0.8,0-1.3-0.3-1.7-0.5c-0.4-0.2-0.6-0.3-1.3-0.3c-0.8,0-2,0.3-3.6,0.8
		c-1.1,0.3-1.4,0.8-1.5,1.1c-0.7,1.7,0.8,5.1,2.3,8.4c0.7,1.4,1.3,2.9,1.9,4.3c2.8,7.4-1,11.7-5.5,16.7c-2.5,2.9-6,4.3-10.3,4.3
		c-3,0-5.8-0.7-7.6-1.4c-2-0.7-3.8-1.8-5.5-2.9c-1-0.6-2.5-1.6-3.2-1.7c-0.2,0.3-0.5,0.6-0.7,1c-1.3,1.8-3.1,4.3-6.2,4
		c-0.6-0.1-1.2-0.1-1.8-0.2c-0.7-0.1-1.3-0.2-1.8-0.2c-0.8,0-0.9,0.2-1.1,0.7c-0.2,0.8-0.1,1.3,0,1.9c0.2,1,0.4,2.4-1.1,4.2
		c-1,1.2-1.8,1.6-2.3,1.9c-0.5,0.2-0.7,0.3-1.2,1.4c-0.1,0.3-0.1,0.4-0.1,0.5c0.5,1.1,3.9,2,5.2,2.3c0.7,0.2,1.2,0.3,1.5,0.3
		c2.1,0.3,2.3,1.3,2.6,3.2c0.2,1.5-0.1,2.7-0.8,3.6c-1,1.2-2.6,1.8-5.3,2l-0.3,0c-2.7,0-6-2.4-8.9-4.4c-1.6-1.2-3.5-2.5-4.6-2.8
		c-0.1,0-0.3-0.1-0.4-0.1c-0.5,0-0.8,1.1-1.2,2.7c-0.2,1-0.5,2-0.9,2.8c-1.2,2.2-3.9,2.2-4.8,2.2l-1.2,0c-2.1,1.3-2.9,2-3.3,2.4
		c4.3,1.3,3.7,4.7,3.2,6.9c-0.1,0.4-0.1,0.8-0.2,1.1c-0.2,1.7-0.2,1.7,3.7,3c1.4,0.5,2.7,0.8,3.8,1c2.3,0.5,3.9,0.9,4.4,2.3
		c0.3,0.8,0.1,1.6-0.7,2.5c-1.2,1.5-3.3,1.8-5.2,2.1c-0.7,0.1-2.2,0.3-2.4,0.6c0,0.4,0,0.8-0.1,1.2c0,0.3-0.1,0.6,0,0.7
		c0.1,0.1,0.6,0.6,1.1,1c0.2,0.1,0.5,0.2,0.9,0.2c1.4,0,3.5-0.8,5.3-1.4c1.3-0.5,2.3-0.9,3.2-1.1c1-0.2,1.5-0.3,1.9-0.3
		c0.7,0,1.1,0.3,1.4,0.6l0.3,0l-0.2,0.3c0.5,0.9-0.1,1.7-1,2.8l-0.6,0.8c-0.5,0.6,0.8,3.1,1.5,4.4c0.9,1.8,1.8,3.4,1.5,4.7
		c-0.2,1-0.4,2.5-2.2,2.5c-0.7,0-1.6-0.3-3.5-0.9l-0.3-0.1c-0.7-0.2-1.5-0.5-2.5-0.8c-0.6-0.2-1.1-0.3-1.7-0.3
		c-4.5,0-8.5,5.5-11.3,9.6l-0.6,0.8c-1.1,1.6-1.6,2.9-1.3,3.7c0.3,0.7,1.3,1.3,2.9,1.7c2.5,0.6,5.7,2.1,6.8,4.5
		c0.5,1.1,0.4,2.3-0.2,3.4c-1,1.8-2.9,2.8-5.3,2.8c-1.7,0-3.6-0.5-5.5-1.4l-0.7-0.4c-2.1-1-4.9-2.4-6.3-2.4c-0.2,0-0.3,0-0.3,0
		c-0.7,2.3-3.5,6.6-5.7,9c-0.6,0.8,1,5.7,1.6,7.6c1,3.2,1.6,4.9,1.2,6.1c-0.4,1.1-1.2,1.8-2.3,1.8c-0.5,0-0.9-0.1-1.3-0.2
		c-0.2,0-0.5-0.1-0.7-0.1c-0.1,0.1-0.4,0.1-0.7,0.1c-0.6,0-1.3-0.3-2.1-0.7c-1-0.5-2.2-1-3.3-1c-1.1,0-1.9,0.5-2.7,1.6
		c-2.1,2.8-1.5,3.9-0.1,6.4c0.5,0.8,1.1,1.9,1.6,3.1c0.6,1.5,5,1.5,6.4,1.5c0.8,0,1.5,0,2.3,0l2.1,0c2.5,0,5.1,0.1,5.9,1.8
		c1.5,3-2.3,6.8-6.7,10.5l-0.5,0.4c-0.4,0.3-0.4,0.4-0.4,0.5c0.1,0.3,1.3,1.4,2.4,2.5l0.3,0.3c1.7,1.7,6.7,2.5,10.7,3.2
		c2.4,0.4,4.5,0.8,6,1.2c3,1,4.3,2.7,4.9,4c0.6,1.3,0.6,2.8,0.1,3.9c-0.6,1.3-2.1,1.4-3.1,1.5c-0.8,0-1.7,0.1-2.1,0.6
		c-0.4,0.4-0.4,0.5-0.5,0.5c0.1,0.1,0.5,0.6,1,1.1c0.3,0.3,0.6,0.6,0.9,1c0.7,0.9,1.5,0.8,2.1,0.7c0.3,0,0.5,0,0.6,0
		c0.7,0,1.3,0.2,1.6,0.7c0.5,0.8,0.2,1.7,0.1,2c-0.5,1.3-1.8,2.8-3.4,4.6c-1.2,1.3-2.7,3-2.9,3.8c-0.1,0.4-0.2,0.7-0.3,1
		c0.3-0.1,0.5-0.3,0.8-0.4c1.8-1.1,4.5-2.7,8.6-2.9c3.1-0.1,5.9,0.6,8.2,1.1c2.1,0.5,3.9,0.9,5.3,0.8c2.6-0.4,2.7-5.1,2.7-6
		c-0.1-0.3-1.4-1.1-2.1-1.5c-1.5-0.9-2.9-1.8-3.3-3.1c-0.3-0.9-0.6-2.1,0.1-3.1c0.7-1,2.1-1.2,3.4-1.2c1.4,0,3,1.4,6.3,4.4
		c3.1,2.8,7.3,6.7,9.9,6.8c5.5,0.3,16.3,8.6,17.5,11c0.8,1.5,0.3,2.6-0.1,3.6c-0.3,0.8-0.7,1.7-0.7,3.3c0,1.4,3.7,4,6.1,5.8
		c3.2,2.4,5.8,4.2,5.9,6.2l0.1,0.6c0.3,3.8,0.7,5.8,1.2,6.1c0.1-0.1,0.3-0.8,0.4-1.1c0.3-1,0.8-2.4,2-3.6c2.3-2.3,6-2.8,6.7-2.9
		l1.2-0.1l0.5,1.9c2.1,9.2,3.6,15.6,4.3,19c1.3,6.2,1.8,11.3,2.4,18.4c0.4,5.3,2.3,10.5,3.8,14.7c0.6,1.5,1,2.9,1.4,4
		c1.4,4.8,1.4,33.6,0,39c-0.9,3.5-1,17.2-1.1,27.2c0,5.3-0.1,9.6-0.2,12.2c-0.1,3.3-0.5,6.8-0.7,9.8c-0.5,5.2-0.9,10-0.6,13.5
		c0.4,6-4.6,40.3-5.8,47.5c-0.7,3.7-4.6,13-8.1,21.2c-1.8,4.2-3.9,9.2-4.8,11.8C479.9,496,486.7,495.4,492.9,495.4z M510.5,301.6
		c-4.6,0-8-15.9-8.1-18.8c-0.2-5.5-1-15-2.1-17.1c-1.1-2.2-1.1-2.2-1.4-2.6l-0.7-0.8l0.6-1.6h1.5l0.3,0.3c0.1,0.1,0.8,0.7,2.3,0.7
		c0.8,0,1.7-0.2,2.8-0.5c4.5-1.4,4.6-3.1,4.3-5.6c-0.1-0.8-0.2-1.4-0.2-1.9c0-0.1,0-0.3,0-0.4c-0.1,0-0.2,0.1-0.4,0.1
		c-0.4,0.1-0.9,0.3-1.4,0.3c-1,0-1.8-0.5-2.6-1.5c-0.7-0.9-0.9-2-0.6-3.1c0.5-1.8,2.1-3.3,3.1-3.7c0.3-0.1,0.7-0.2,1-0.2
		c1.3,0,1.9,1,2.3,1.7c0.1,0.3,0.3,0.5,0.5,0.7l0.2,0.2c0.7,0.9,1.8,2.2,3.5,2.2l0.9,0c0.2,0,0.4,0,0.6,0c0-0.1-0.1-0.3-0.1-0.4
		c-0.3-0.9-0.8-1.5-1.2-2.2c-0.7-1-1.5-2.1-1.2-3.7c0.4-2.2,2-3,2.5-3.1c0.7-0.1,1.2-0.1,1.7-0.2c0.7-0.1,1.2-0.1,1.6-0.1
		c2.8,0,3.1,2.4,3.1,3.2c0.2,2.4,1.7,3.8,2.9,5c1.3,1.3,0.6,3-0.1,4.5c-0.6,1.3-1.3,2.8-1.5,4.8c-0.2,1.5-0.3,3.8-0.5,6.5
		c-0.3,5.5-0.8,12.4-1.8,16.2c-0.7,2.4-6.7,20.2-11.1,20.9L510.5,301.6z M502.6,264.3l0.1,0.2c1.6,3.2,2.3,15.7,2.4,18.2
		c0.2,4.8,3.9,15.7,5.5,16.3c1.5-0.5,6.9-11.8,8.8-18.9c1-3.5,1.4-10.2,1.7-15.7c0.2-2.7,0.3-5.1,0.5-6.7c0.3-2.5,1.2-4.3,1.8-5.6
		c0.2-0.5,0.6-1.4,0.6-1.6c-1.3-1.2-3.3-3.2-3.6-6.5c-0.1-0.7-0.2-0.8-0.2-0.8c0,0-0.1,0-0.3,0c-0.3,0-0.8,0.1-1.2,0.1
		c-0.6,0.1-1,0.1-1.5,0.2c-0.1,0.1-0.4,0.3-0.5,1c-0.1,0.4,0.2,0.9,0.8,1.7c0.5,0.8,1.2,1.7,1.6,2.9c0.3,1,0.6,2.1,0,3
		c-0.6,0.9-1.6,0.9-2.9,0.9l-0.8,0c-1.3,0-2.4-0.4-3.2-0.9c0.2,0.4,0.2,1,0.3,1.5c0,0.4,0.1,1,0.2,1.8c0.5,3.7-0.3,6.6-6.1,8.4
		C505.1,264.2,503.7,264.4,502.6,264.3z M508.5,248.1c-0.4,0.3-1.1,1.1-1.3,1.8c-0.1,0.3,0,0.6,0.1,0.8c0.3,0.4,0.5,0.4,0.5,0.4
		c0.1,0,0.3-0.1,0.5-0.1c0.4-0.1,0.9-0.3,1.5-0.3c0.3,0,0.6,0.1,0.8,0.1c-0.4-0.4-0.8-0.8-1-1.2l-0.1-0.2c-0.3-0.3-0.5-0.7-0.7-1
		C508.7,248.3,508.6,248.2,508.5,248.1z"/>
</g>
<path fill="#B30838" d="M393.2,234.9l14.4-14.3c-0.2-0.1-0.4-0.3-0.6-0.5c-0.3-0.4-0.6-0.7-0.9-1c-1.3-1.4-1.3-1.4-0.5-2.2
	c0.6-0.6,1.5-0.6,2.4-0.7c1-0.1,2.3-0.1,2.8-1.3c0.4-1,0.4-2.3-0.2-3.6c-0.5-1.2-1.8-2.9-4.7-3.8c-1.5-0.5-3.7-0.8-5.9-1.2
	c-4.1-0.7-9.1-1.5-10.9-3.3l-0.3-0.2c-1.3-1.3-2.6-2.5-2.6-2.9c0,0,0-0.2,0.5-0.7l0.5-0.4c4.2-3.6,8-7.2,6.6-10
	c-0.7-1.4-2.7-1.6-5.6-1.6c-0.7,0-1.4,0-2.1,0c-0.8,0-1.5,0-2.3,0c-2.8,0-6.1-0.2-6.8-1.7c-0.5-1.2-1.1-2.2-1.6-3
	c-1.5-2.5-2.2-3.8,0.1-6.8c0.9-1.1,1.9-1.7,3-1.7c1.2,0,2.5,0.6,3.5,1.1c1.1,0.5,1.9,0.8,2.6,0.5c0.2,0,0.5,0.1,0.7,0.2
	c0.4,0.1,0.8,0.2,1.3,0.2c0.5,0,1.5-0.2,1.9-1.5c0.3-1-0.2-2.7-1.2-5.8c-0.8-2.5-2.3-7.1-1.5-8c1.6-1.7,3.5-4.4,4.7-6.7H215.4
	l-19.3,34.7l76.8,53.1h119.5v-5.9"/>
<path fill="#B30838" stroke="#B30838" stroke-width="0.5" stroke-miterlimit="10" d="M16.4,187.8"/>
<polygon fill="#B30838" points="195,189 89.1,189 61,242.3 272.2,242.3 "/>
<line fill="none" stroke="#B30838" stroke-width="0.25" stroke-miterlimit="10" x1="392.3" y1="429.4" x2="394" y2="429.4"/>
<line fill="none" stroke="#B30838" stroke-width="0.25" stroke-miterlimit="10" x1="272.1" y1="429.4" x2="273.9" y2="429.4"/>
</svg>
